<svg width="16" height="15" viewBox="0 0 16 15" fill="none" xmlns="http://www.w3.org/2000/svg">
<path fill-rule="evenodd" clip-rule="evenodd" d="M10.6191 10.1807V7.45169C10.6191 6.20661 9.58953 5.19728 8.31956 5.19728H3.07812V2.58692C3.07812 1.53844 3.94509 0.688477 5.01454 0.688477H14.0511C15.1206 0.688477 15.9875 1.53844 15.9875 2.58692V8.28226L16.0003 11.8003C16.0011 12.0078 15.8301 12.1766 15.6185 12.1773C15.5163 12.1777 15.4183 12.1381 15.3461 12.0673L13.4218 10.1807H10.6191Z" fill="#9F9EB2"/>
<path opacity="0.3" fill-rule="evenodd" clip-rule="evenodd" d="M0 11.9605V8.20313C0 7.37308 0.686345 6.7002 1.53299 6.7002H7.66497C8.51162 6.7002 9.19796 7.37308 9.19796 8.20313V11.9605C9.19796 12.7905 8.51162 13.4634 7.66497 13.4634H1.6217L0.668292 14.358C0.515383 14.5015 0.272781 14.4963 0.126427 14.3464C0.0581539 14.2765 0.0200455 14.1834 0.0200455 14.0866V12.2041C0.00685696 12.1248 0 12.0434 0 11.9605ZM3.46069 8.9546C3.24903 8.9546 3.07744 9.12282 3.07744 9.33033C3.07744 9.53784 3.24903 9.70607 3.46069 9.70607H7.29318C7.50484 9.70607 7.67642 9.53784 7.67642 9.33033C7.67642 9.12282 7.50484 8.9546 7.29318 8.9546H3.46069ZM5.76018 10.4575C5.54852 10.4575 5.37693 10.6258 5.37693 10.8333C5.37693 11.0408 5.54852 11.209 5.76018 11.209H7.29318C7.50484 11.209 7.67642 11.0408 7.67642 10.8333C7.67642 10.6258 7.50484 10.4575 7.29318 10.4575H5.76018Z" fill="#9F9EB2"/>
</svg>
