<svg width="24" height="24" viewBox="0 0 24 24" fill="none" xmlns="http://www.w3.org/2000/svg">
<path fill-rule="evenodd" clip-rule="evenodd" d="M11.1061 7.25105C11.4408 7.58579 11.4408 8.1285 11.1061 8.46323L6.56933 13L11.1061 17.5368C11.4408 17.8715 11.4408 18.4142 11.1061 18.7489C10.7714 19.0837 10.2286 19.0837 9.89391 18.7489L4.75105 13.6061C4.41632 13.2714 4.41632 12.7286 4.75105 12.3939L9.89391 7.25105C10.2286 6.91632 10.7714 6.91632 11.1061 7.25105Z" fill="#3F3D65"/>
<path fill-rule="evenodd" clip-rule="evenodd" d="M5.35714 13C5.35714 12.5266 5.7409 12.1429 6.21429 12.1429L17.3571 12.1429C17.8305 12.1429 18.2143 12.5266 18.2143 13C18.2143 13.4734 17.8305 13.8571 17.3571 13.8571L6.21429 13.8571C5.7409 13.8571 5.35714 13.4734 5.35714 13Z" fill="#3F3D65"/>
</svg>
