<svg width="16" height="17" viewBox="0 0 16 17" fill="none" xmlns="http://www.w3.org/2000/svg">
<path opacity="0.4" d="M11.5528 0.688477H4.848C2.416 0.688477 1 2.11248 1 4.55248V12.8165C1 15.2965 2.416 16.6885 4.848 16.6885H11.5528C14.024 16.6885 15.4 15.2965 15.4 12.8165V4.55248C15.4 2.11248 14.024 0.688477 11.5528 0.688477Z" fill="#9F9EB2"/>
<path d="M10.8611 10.1812C10.8611 10.6977 10.6802 11.1549 10.3184 11.5529C10.0432 11.8531 9.69488 12.0657 9.2733 12.1909C9.036 12.2614 8.8529 12.4664 8.8529 12.7139V12.9378C8.8529 13.214 8.62904 13.4378 8.3529 13.4378H8.27231C7.99616 13.4378 7.77231 13.214 7.77231 12.9378V12.6979C7.77231 12.4531 7.59388 12.2475 7.35747 12.1836C7.06641 12.105 6.78529 11.9951 6.51408 11.8539C6.26551 11.7245 6.04515 11.5797 5.85303 11.4195C5.65982 11.2583 5.6612 10.972 5.82686 10.7827L5.95262 10.6389C6.14026 10.4245 6.46688 10.4132 6.69335 10.5861C6.87483 10.7247 7.05849 10.8413 7.24435 10.9362C7.57 11.1006 7.93349 11.1829 8.33481 11.1829C8.72625 11.1829 9.04204 11.0924 9.28218 10.9115C9.5256 10.7273 9.64731 10.4872 9.64731 10.1911C9.64731 10.0365 9.60454 9.90162 9.51902 9.78649C9.43349 9.67136 9.31836 9.57761 9.17362 9.50524C9.02889 9.43287 8.86277 9.36708 8.67527 9.30787C8.48777 9.24866 8.2904 9.19274 8.08316 9.14011C7.87593 9.08419 7.66869 9.02333 7.46145 8.95755C7.2575 8.89176 7.06178 8.80787 6.87428 8.7059C6.68678 8.60393 6.52066 8.48386 6.37593 8.3457C6.23119 8.20755 6.11606 8.03156 6.03053 7.81774C5.945 7.60393 5.90224 7.35886 5.90224 7.08255C5.90224 6.58255 6.07329 6.14998 6.4154 5.78485C6.67215 5.51098 6.98797 5.31255 7.36287 5.18955C7.59442 5.11358 7.77231 4.91089 7.77231 4.6672V4.43945C7.77231 4.16331 7.99616 3.93945 8.27231 3.93945H8.3529C8.62904 3.93945 8.8529 4.16331 8.8529 4.43945V4.68037C8.8529 4.92261 9.02792 5.12624 9.25985 5.19615C9.48058 5.26268 9.69361 5.35036 9.89895 5.45919C10.0889 5.55885 10.2562 5.66712 10.401 5.78398C10.5829 5.93083 10.589 6.1942 10.449 6.38149L10.3531 6.50987C10.1691 6.7561 9.80857 6.77555 9.54987 6.60953C9.42754 6.53103 9.29719 6.46172 9.15882 6.40162C8.83645 6.26018 8.51573 6.18945 8.19665 6.18945C7.87099 6.18945 7.60454 6.26347 7.39731 6.41149C7.19336 6.55952 7.09139 6.75195 7.09139 6.9888C7.09139 7.14998 7.13415 7.29143 7.21968 7.41314C7.3052 7.53156 7.42033 7.63024 7.56507 7.70919C7.7131 7.78485 7.88086 7.85393 8.06836 7.91643C8.25586 7.97893 8.45323 8.03978 8.66046 8.09899C8.87099 8.1582 9.07987 8.22235 9.28711 8.29143C9.49764 8.36051 9.69665 8.44768 9.88415 8.55294C10.0716 8.6582 10.2378 8.77991 10.3825 8.91807C10.5305 9.05623 10.6473 9.23386 10.7328 9.45097C10.8184 9.66478 10.8611 9.9082 10.8611 10.1812Z" fill="#9F9EB2"/>
</svg>
