<svg width="24" height="24" viewBox="0 0 24 24" fill="none" xmlns="http://www.w3.org/2000/svg">
<path fill-rule="evenodd" clip-rule="evenodd" d="M12.8939 7.25105C12.5592 7.58579 12.5592 8.1285 12.8939 8.46323L17.4307 13L12.8939 17.5368C12.5592 17.8715 12.5592 18.4142 12.8939 18.7489C13.2286 19.0837 13.7714 19.0837 14.1061 18.7489L19.2489 13.6061C19.5837 13.2714 19.5837 12.7286 19.2489 12.3939L14.1061 7.25105C13.7714 6.91632 13.2286 6.91632 12.8939 7.25105Z" fill="white"/>
<path fill-rule="evenodd" clip-rule="evenodd" d="M18.6429 13C18.6429 12.5266 18.2591 12.1429 17.7857 12.1429L6.64286 12.1429C6.16947 12.1429 5.78571 12.5266 5.78571 13C5.78571 13.4734 6.16947 13.8571 6.64286 13.8571L17.7857 13.8571C18.2591 13.8571 18.6429 13.4734 18.6429 13Z" fill="white"/>
</svg>
