<svg width="13" height="17" viewBox="0 0 13 17" fill="none" xmlns="http://www.w3.org/2000/svg">
<path fill-rule="evenodd" clip-rule="evenodd" d="M9.38762 1.53803L9.38831 2.06277C11.3166 2.21389 12.5903 3.52784 12.5924 5.54283L12.6 11.4409C12.6028 13.6378 11.2226 14.9895 9.01026 14.993L3.60632 15C1.40784 15.0028 0.0103716 13.6189 0.00760708 11.4157L4.65482e-06 5.5869C-0.00275986 3.55862 1.22607 2.24818 3.15432 2.07117L3.15363 1.54643C3.15294 1.23858 3.38101 1.007 3.68511 1.007C3.9892 1.0063 4.21728 1.23718 4.21797 1.54503L4.21866 2.03478L8.32397 2.02919L8.32328 1.53943C8.32259 1.23159 8.55066 1.0007 8.85476 1C9.15194 0.999302 9.38693 1.23019 9.38762 1.53803ZM1.06509 5.80311L11.5288 5.78912V5.54424C11.4991 4.04 10.7444 3.25079 9.38975 3.13325L9.39044 3.67198C9.39044 3.97283 9.15615 4.21141 8.85896 4.21141C8.55486 4.21211 8.3261 3.97423 8.3261 3.67338L8.32541 3.10666L4.2201 3.11226L4.22079 3.67828C4.22079 3.97983 3.99341 4.21771 3.68931 4.21771C3.38521 4.21841 3.15645 3.98123 3.15645 3.67968L3.15576 3.14095C1.80806 3.27598 1.06233 4.06798 1.0644 5.58552L1.06509 5.80311ZM8.56831 8.98297V8.99067C8.57522 9.31251 8.83785 9.55669 9.15646 9.54969C9.46747 9.542 9.71558 9.27543 9.70867 8.95359C9.69416 8.64574 9.44466 8.39457 9.13434 8.39527C8.81642 8.40227 8.56761 8.66114 8.56831 8.98297ZM9.13858 12.1244C8.82066 12.1174 8.56425 11.8522 8.56356 11.5304C8.55665 11.2086 8.81167 10.942 9.12959 10.9343H9.13651C9.46134 10.9343 9.72466 11.1995 9.72466 11.5283C9.72535 11.8571 9.46272 12.1237 9.13858 12.1244ZM5.72065 8.99425C5.73447 9.31609 5.99779 9.56726 6.31571 9.55327C6.62672 9.53858 6.87484 9.27271 6.86101 8.95087C6.85341 8.63603 6.59769 8.39115 6.28668 8.39185C5.96876 8.40584 5.71996 8.67241 5.72065 8.99425ZM6.31864 12.093C6.00072 12.107 5.73809 11.8558 5.72358 11.534C5.72358 11.2121 5.97169 10.9463 6.28961 10.9316C6.60062 10.9309 6.85703 11.1757 6.86394 11.4899C6.87845 11.8124 6.62965 12.0783 6.31864 12.093ZM2.87297 9.01868C2.88679 9.34052 3.15011 9.59239 3.46803 9.5777C3.77904 9.56371 4.02715 9.29714 4.01264 8.9753C4.00573 8.66046 3.75001 8.41558 3.43831 8.41628C3.12039 8.43028 2.87228 8.69684 2.87297 9.01868ZM3.47098 12.0964C3.15307 12.1111 2.89044 11.8592 2.87592 11.5374C2.87523 11.2156 3.12404 10.949 3.44196 10.935C3.75297 10.9343 4.00937 11.1792 4.01629 11.494C4.0308 11.8159 3.78268 12.0824 3.47098 12.0964Z" fill="#6062F9"/>
</svg>
