<svg width="17" height="17" viewBox="0 0 17 17" fill="none" xmlns="http://www.w3.org/2000/svg">
<path d="M8.5 0.5C10.0822 0.5 11.629 0.969192 12.9446 1.84824C14.2602 2.72729 15.2855 3.97672 15.891 5.43853C16.4965 6.90034 16.655 8.50887 16.3463 10.0607C16.0376 11.6126 15.2757 13.038 14.1569 14.1569C13.038 15.2757 11.6126 16.0376 10.0607 16.3463C8.50887 16.655 6.90034 16.4965 5.43853 15.891C3.97672 15.2855 2.72729 14.2602 1.84824 12.9446C0.969192 11.629 0.5 10.0822 0.5 8.5C0.5 6.37827 1.34285 4.34344 2.84315 2.84315C4.34344 1.34285 6.37827 0.5 8.5 0.5V0.5Z" fill="#00BB07"/>
<g clip-path="url(#clip0_694_16845)">
<path d="M11.7749 6.44531L7.58445 10.6358L5.67969 8.73103" stroke="white" stroke-width="2.5" stroke-linecap="round" stroke-linejoin="round"/>
</g>
<defs>
<clipPath id="clip0_694_16845">
<rect width="9.14286" height="9.14286" fill="white" transform="translate(4.15625 3.70312)"/>
</clipPath>
</defs>
</svg>
