<svg width="5" height="16" viewBox="0 0 5 16" fill="none" xmlns="http://www.w3.org/2000/svg">
<path fill-rule="evenodd" clip-rule="evenodd" d="M2.12051 10C0.970827 10 0.0388807 9.1046 0.0388809 8C0.038881 6.8954 0.970828 6 2.12051 6C3.2702 6 4.20215 6.8954 4.20215 8C4.20215 9.1046 3.2702 10 2.12051 10ZM2.12051 4C0.970828 4 0.0388808 3.10457 0.038881 2C0.0388811 0.89543 0.970828 -3.53114e-08 2.12051 -2.27478e-08C3.2702 -1.01842e-08 4.20215 0.89543 4.20215 2C4.20215 3.10457 3.2702 4 2.12051 4ZM2.12051 16C0.970827 16 0.0388806 15.1046 0.0388808 14C0.038881 12.8954 0.970828 12 2.12051 12C3.2702 12 4.20215 12.8954 4.20215 14C4.20215 15.1046 3.2702 16 2.12051 16Z" fill="#171717"/>
</svg>
