<svg width="12" height="14" viewBox="0 0 12 14" fill="none" xmlns="http://www.w3.org/2000/svg">
<path fill-rule="evenodd" clip-rule="evenodd" d="M11.5247 2.49792C11.7841 2.49792 12 2.71325 12 2.98724V3.24058C12 3.50791 11.7841 3.7299 11.5247 3.7299H0.475902C0.215907 3.7299 0 3.50791 0 3.24058V2.98724C0 2.71325 0.215907 2.49792 0.475902 2.49792H2.41971C2.81457 2.49792 3.1582 2.21725 3.24703 1.82126L3.34882 1.36659C3.50702 0.747267 4.02766 0.335938 4.62351 0.335938H7.37649C7.96585 0.335938 8.49233 0.747267 8.64469 1.33393L8.75362 1.82059C8.8418 2.21725 9.18543 2.49792 9.58094 2.49792H11.5247ZM10.5371 11.7548C10.74 9.86349 11.0953 5.3702 11.0953 5.32487C11.1083 5.18754 11.0635 5.05754 10.9747 4.95287C10.8794 4.85487 10.7588 4.79688 10.6259 4.79688H1.37887C1.24531 4.79688 1.11823 4.85487 1.03005 4.95287C0.940574 5.05754 0.896485 5.18754 0.902969 5.32487C0.90416 5.3332 0.916909 5.49148 0.938224 5.75609C1.03291 6.93159 1.29664 10.2056 1.46705 11.7548C1.58765 12.8961 2.33651 13.6135 3.42123 13.6395C4.25828 13.6588 5.1206 13.6655 6.00239 13.6655C6.83295 13.6655 7.67647 13.6588 8.53945 13.6395C9.66178 13.6201 10.41 12.9155 10.5371 11.7548Z" fill="#9F9EB2"/>
</svg>
