<svg width="20" height="20" viewBox="0 0 20 20" fill="none" xmlns="http://www.w3.org/2000/svg">
<path d="M10.0013 13.3366C11.8423 13.3366 13.3346 11.8442 13.3346 10.0033C13.3346 8.16231 11.8423 6.66992 10.0013 6.66992C8.16035 6.66992 6.66797 8.16231 6.66797 10.0033C6.66797 11.8442 8.16035 13.3366 10.0013 13.3366Z" stroke="#CFCFD8" stroke-width="1.5" stroke-linecap="round" stroke-linejoin="round"/>
<path d="M13.3346 6.6694V10.8361C13.3346 11.4991 13.598 12.135 14.0669 12.6038C14.5357 13.0727 15.1716 13.3361 15.8346 13.3361C16.4977 13.3361 17.1336 13.0727 17.6024 12.6038C18.0713 12.135 18.3346 11.4991 18.3346 10.8361V10.0027C18.3345 8.12193 17.6982 6.29647 16.529 4.82318C15.3599 3.34989 13.7268 2.31543 11.8952 1.88799C10.0636 1.46055 8.14126 1.66527 6.44077 2.46888C4.74028 3.27248 3.36164 4.6277 2.52902 6.31417C1.69641 8.00065 1.45878 9.91919 1.85478 11.7578C2.25078 13.5965 3.25712 15.2471 4.71017 16.4413C6.16321 17.6355 7.9775 18.303 9.85804 18.3354C11.7386 18.3677 13.5747 17.7629 15.068 16.6194" stroke="#CFCFD8" stroke-width="1.5" stroke-linecap="round" stroke-linejoin="round"/>
</svg>
