<svg width="16" height="11" viewBox="0 0 16 11" fill="none" xmlns="http://www.w3.org/2000/svg">
<path d="M15.9992 5.59966C15.4401 6.55392 14.8025 7.46027 14.0932 8.30889C13.1599 9.23731 12.0147 9.92461 10.7564 10.3116C9.49812 10.6985 8.16453 10.7734 6.8708 10.5298C5.57706 10.2863 4.36199 9.73162 3.33051 8.91363C2.29903 8.09564 1.48214 7.039 0.950266 5.83477C0.863208 5.60909 0.86567 5.35871 0.957224 5.13482C1.58194 3.74863 2.58155 2.56446 3.84333 1.71612C5.10512 0.867766 6.57889 0.388968 8.09834 0.333547C9.61779 0.278126 11.1225 0.648467 12.4427 1.40264C13.7629 2.15681 14.8462 3.26486 15.5703 4.60186C15.7213 4.86086 15.8562 5.12985 15.9992 5.39385V5.59966ZM8.35017 8.94585C9.03023 8.9534 9.69742 8.75957 10.2675 8.38872C10.8376 8.01788 11.2853 7.48662 11.554 6.86187C11.8228 6.23712 11.9006 5.54667 11.7778 4.87774C11.655 4.20881 11.337 3.59114 10.8638 3.10259C10.3907 2.61404 9.78362 2.27655 9.11897 2.13238C8.45432 1.9882 7.7619 2.04393 7.12885 2.29253C6.49581 2.54113 5.9504 2.97142 5.56147 3.52935C5.17254 4.08727 4.95744 4.74783 4.94319 5.42779C4.93511 5.88269 5.01692 6.33464 5.18391 6.75786C5.3509 7.18109 5.59981 7.56726 5.91633 7.89409C6.23285 8.22093 6.61073 8.48218 7.02839 8.66265C7.44605 8.84312 7.89523 8.93934 8.35017 8.94585Z" fill="#9F9EB2"/>
<path d="M8.42985 3.42201C8.84022 3.42924 9.23916 3.55816 9.57621 3.79237C9.91326 4.02658 10.1731 4.35536 10.323 4.73744C10.4729 5.11952 10.506 5.5377 10.4181 5.93861C10.3302 6.33953 10.1254 6.7053 9.82938 6.98964C9.5334 7.27398 9.15965 7.46405 8.75553 7.53578C8.35141 7.60751 7.93512 7.55758 7.55936 7.39247C7.1836 7.22737 6.86531 6.95447 6.64481 6.60829C6.42432 6.26212 6.3116 5.85822 6.32084 5.44789C6.33654 4.90111 6.56638 4.38251 6.96085 4.00355C7.35533 3.6246 7.88288 3.41576 8.42985 3.42201Z" fill="#9F9EB2"/>
</svg>
