<svg width="16" height="16" viewBox="0 0 16 16" fill="none" xmlns="http://www.w3.org/2000/svg">
<path fill-rule="evenodd" clip-rule="evenodd" d="M5.41526 3.66014C5.41526 5.12988 4.2036 6.32115 2.70763 6.32115C1.21253 6.32115 0 5.12988 0 3.66014C0 2.19126 1.21253 1 2.70763 1C4.2036 1 5.41526 2.19126 5.41526 3.66014ZM14.5598 2.49219C15.2141 2.49219 15.7461 3.01476 15.7461 3.65767C15.7461 4.30143 15.2141 4.824 14.5598 4.824H9.38247C8.72721 4.824 8.19531 4.30143 8.19531 3.65767C8.19531 3.01476 8.72721 2.49219 9.38247 2.49219H14.5598ZM1.18716 11.2031H6.36446C7.01971 11.2031 7.55161 11.7257 7.55161 12.3695C7.55161 13.0124 7.01971 13.5358 6.36446 13.5358H1.18716C0.531902 13.5358 0 13.0124 0 12.3695C0 11.7257 0.531902 11.2031 1.18716 11.2031ZM13.0416 15.0008C14.5376 15.0008 15.7492 13.8096 15.7492 12.3407C15.7492 10.871 14.5376 9.67969 13.0416 9.67969C11.5465 9.67969 10.334 10.871 10.334 12.3407C10.334 13.8096 11.5465 15.0008 13.0416 15.0008Z" fill="white"/>
</svg>
