<svg width="20" height="20" viewBox="0 0 20 20" fill="none" xmlns="http://www.w3.org/2000/svg">
<path d="M18.7253 17.5873H1.25111C0.573519 17.5873 0.00292969 17.0345 0.00292969 16.3391V3.71489C0.00292969 3.03739 0.555686 2.4668 1.25111 2.4668H18.7253C19.4029 2.4668 19.9735 3.01955 19.9735 3.71489V16.3391C19.9735 17.0345 19.4207 17.5873 18.7253 17.5873Z" fill="#E3E3E3"/>
<path opacity="0.1" d="M2.4989 17.5877L9.96998 11.5787L10.0235 11.2578L2.32057 5.7124L2.30273 17.3203L2.4989 17.5877Z" fill="#231F20"/>
<path d="M1.25111 17.5874C0.555686 17.5874 0.00292969 17.0346 0.00292969 16.3392V3.69713C0.00292969 3.00179 0.555686 2.87695 1.25111 2.87695C1.94653 2.87695 2.49929 3.01962 2.49929 3.69713V17.5874H1.25111Z" fill="#D54B3D"/>
<path fill-rule="evenodd" clip-rule="evenodd" d="M0.00292969 3.69713C0.00292969 3.01962 0.555686 2.87695 1.25111 2.87695C1.94653 2.87695 2.49929 3.00179 2.49929 3.69713V17.5874H1.25111C0.555686 17.5874 0.00292969 17.0346 0.00292969 16.3392V3.69713ZM2.32101 3.69683C2.32101 3.32241 2.14268 3.05499 1.25117 3.05499C0.35966 3.05499 0.181325 3.30457 0.181325 3.69683V16.3389C0.181325 16.9273 0.662747 17.4087 1.25117 17.4087H2.32101V3.69683Z" fill="#D72B27"/>
<path d="M18.7247 17.5874H17.4766V3.66154C17.4766 2.96612 18.0293 2.87695 18.7247 2.87695C19.4201 2.87695 19.9728 2.96612 19.9728 3.66154V16.357C19.9728 17.0346 19.4201 17.5874 18.7247 17.5874Z" fill="#D54B3D"/>
<path fill-rule="evenodd" clip-rule="evenodd" d="M17.4766 3.66154C17.4766 2.96612 18.0293 2.87695 18.7247 2.87695C19.4201 2.87695 19.9728 2.96612 19.9728 3.66154V16.357C19.9728 17.0524 19.4201 17.6052 18.7247 17.6052H17.4766V3.66154ZM19.7945 3.66124C19.7945 3.21541 19.527 3.05499 18.7247 3.05499C17.9222 3.05499 17.6548 3.19757 17.6548 3.66124V17.4266H18.7247C19.3131 17.4266 19.7945 16.9451 19.7945 16.3567V3.66124Z" fill="#D72B27"/>
<path d="M13.3761 17.5873L0.107422 4.21568L0.805346 4.49952L10.0417 11.1504L19.9735 3.86768V16.357C19.9735 17.0346 19.4207 17.5873 18.7253 17.5873H13.3761Z" fill="url(#paint0_linear_817_7381)"/>
<path d="M9.96965 11.5776L0.537133 4.73064C-0.0156224 4.32056 -0.176041 3.53596 0.234047 2.98321C0.644135 2.43045 1.44656 2.30562 2.01715 2.7157L9.98748 8.51077L18.0113 2.64445C18.5641 2.23428 19.3487 2.35912 19.7588 2.92971C20.1688 3.48246 20.044 4.26705 19.4734 4.67714L9.96965 11.5776Z" fill="#D54B3D"/>
<path fill-rule="evenodd" clip-rule="evenodd" d="M17.9939 2.62734C18.2079 2.46684 18.4753 2.39551 18.7249 2.39551C19.1172 2.39551 19.4916 2.57384 19.7413 2.93043C20.1335 3.50102 20.0088 4.26778 19.456 4.67787L9.97002 11.5962L0.537503 4.73137C-0.0152533 4.32119 -0.175672 3.53669 0.216583 2.98393C0.466169 2.64518 0.858506 2.46684 1.25076 2.46684C1.51826 2.46684 1.78568 2.53818 1.99968 2.69859L9.97002 8.49366L17.9939 2.62734ZM19.5989 3.0195C19.3849 2.73416 19.0639 2.57375 18.7252 2.57375C18.4934 2.57375 18.2794 2.64508 18.0833 2.76983L10.0773 8.63623L9.97027 8.70748L9.86326 8.63623L1.91076 2.859C1.73243 2.71633 1.50067 2.64508 1.26884 2.64508C0.912252 2.64508 0.573415 2.82333 0.377329 3.09083C0.0384925 3.55442 0.163327 4.23201 0.644749 4.5886L9.97027 11.3643L19.3671 4.51727C19.8307 4.16068 19.9377 3.50092 19.5989 3.0195Z" fill="#D72B27"/>
<defs>
<linearGradient id="paint0_linear_817_7381" x1="0.108172" y1="17.5889" x2="19.9799" y2="17.5889" gradientUnits="userSpaceOnUse">
<stop stop-opacity="0.1"/>
<stop offset="1" stop-opacity="0.2"/>
</linearGradient>
</defs>
</svg>
