<svg width="48" height="48" viewBox="0 0 48 48" fill="none" xmlns="http://www.w3.org/2000/svg">
<rect width="48" height="48" rx="8" fill="white"/>
<path d="M35.6294 23.9974C35.6294 25.597 36.9764 26.8939 38.639 26.8939C40.2996 26.8939 41.6465 25.597 41.6465 23.9974C41.6465 22.3986 40.2996 21.1019 38.639 21.1019C36.9764 21.1019 35.6294 22.3987 35.6294 23.9974ZM18.5147 38.0797C17.6838 39.4638 15.8448 39.9386 14.406 39.1397C12.9674 38.3398 12.4744 36.5684 13.3051 35.1832C14.1358 33.7981 15.975 33.3245 17.4136 34.1242C18.8524 34.9241 19.3454 36.6946 18.5147 38.0797ZM13.3051 12.8125C12.4744 11.4272 12.9664 9.65613 14.406 8.85726C15.8439 8.05751 17.6838 8.53213 18.5147 9.91676C19.3454 11.3019 18.8524 13.0726 17.4136 13.8724C15.975 14.6723 14.1349 14.1976 13.3051 12.8125ZM23.4862 15.739C19.0037 15.739 15.3256 19.0471 14.9414 23.2665L10.5878 23.2005C10.7945 20.0653 12.207 17.2455 14.3839 15.1664C15.5363 15.5944 16.8732 15.5361 18.0267 14.8945C19.1811 14.2529 19.902 13.1668 20.0926 11.99C21.1745 11.7071 22.3127 11.5557 23.4863 11.5557C25.5452 11.5557 27.4911 12.0191 29.2191 12.8435L27.1009 16.5058C26.0028 16.0147 24.7768 15.739 23.4862 15.739ZM32.0653 23.9974C32.0653 21.2039 30.6235 18.7334 28.4175 17.2396L30.6527 13.6424C33.2419 15.3071 35.1705 17.8463 35.9842 20.8233C35.0213 21.5698 34.4043 22.7142 34.4043 23.9974C34.4043 25.2815 35.0213 26.4259 35.9842 27.1724C35.1705 30.1494 33.2418 32.6886 30.6527 34.3542L28.4175 30.757C30.6234 29.2623 32.0653 26.7929 32.0653 23.9974ZM23.4862 32.2576C24.7768 32.2576 26.0028 31.9819 27.1007 31.49L29.219 35.1522C27.4909 35.9773 25.545 36.4402 23.4862 36.4402C22.3125 36.4402 21.1744 36.2899 20.0924 36.0064C19.9018 34.8289 19.1809 33.7428 18.0266 33.1022C16.873 32.4606 15.5362 32.4023 14.3837 32.8303C12.2068 30.7502 10.7943 27.9305 10.5877 24.7953L14.9413 24.7303C15.3256 28.9488 19.0037 32.2576 23.4862 32.2576Z" fill="#E95420"/>
</svg>
