<svg width="16" height="18" viewBox="0 0 16 18" fill="none" xmlns="http://www.w3.org/2000/svg">
<path d="M5.5 0.664062V2.33073H2.16667L2.16583 10.6641H13.8325L13.8333 2.33073H10.5V0.664062H14.6667C14.8877 0.664063 15.0996 0.75186 15.2559 0.90814C15.4122 1.06442 15.5 1.27638 15.5 1.4974V16.4974C15.5 16.7184 15.4122 16.9304 15.2559 17.0867C15.0996 17.2429 14.8877 17.3307 14.6667 17.3307H1.33333C1.11232 17.3307 0.900358 17.2429 0.744078 17.0867C0.587797 16.9304 0.5 16.7184 0.5 16.4974V1.4974C0.5 1.27638 0.587797 1.06442 0.744078 0.90814C0.900358 0.75186 1.11232 0.664063 1.33333 0.664062H5.5ZM13.8325 12.3307H2.16583L2.16667 15.6641H13.8333L13.8325 12.3307ZM12.1667 13.1641V14.8307H10.5V13.1641H12.1667ZM8.83333 0.664062V4.83073H11.3333L8 8.16406L4.66667 4.83073H7.16667V0.664062H8.83333Z" fill="white"/>
</svg>
