<svg width="150" height="150" viewBox="0 0 150 150" fill="none" xmlns="http://www.w3.org/2000/svg">
<path d="M127.734 23.9123C103.41 23.9123 78.2019 1.36516 77.9522 1.13928C76.2768 -0.379761 73.7229 -0.379761 72.0478 1.13928C71.7967 1.36692 46.6547 23.9123 22.2656 23.9123C19.8387 23.9123 17.8711 25.8799 17.8711 28.3069V80.9352C17.8711 123.569 49.5809 140.605 73.4326 149.711C73.9374 149.904 74.4686 150 75 150C75.5314 150 76.0626 149.904 76.5674 149.711C110.011 136.943 132.129 117.028 132.129 80.9352V28.3069C132.129 25.8799 130.161 23.9123 127.734 23.9123Z" fill="url(#paint0_linear_793_18126)"/>
<path d="M75 44.2383C58.038 44.2383 44.2383 58.038 44.2383 75C44.2383 91.962 58.038 105.762 75 105.762C91.962 105.762 105.762 91.962 105.762 75C105.762 58.038 91.962 44.2383 75 44.2383ZM86.8963 73.7127L73.7127 86.8963C72.8549 87.7544 71.7302 88.1836 70.6055 88.1836C69.4808 88.1836 68.3561 87.7547 67.4982 86.8963L63.1037 82.5018C61.3875 80.7855 61.3875 78.0032 63.1037 76.287C64.8196 74.5708 67.6022 74.5708 69.3185 76.287L70.6058 77.574L80.6821 67.498C82.398 65.7817 85.1807 65.7817 86.8969 67.498C88.6128 69.2142 88.6128 71.9965 86.8963 73.7127Z" fill="white"/>
<defs>
<linearGradient id="paint0_linear_793_18126" x1="75" y1="150" x2="75" y2="-7.15256e-05" gradientUnits="userSpaceOnUse">
<stop stop-color="#00B59C"/>
<stop offset="1" stop-color="#9CFFAC"/>
</linearGradient>
</defs>
</svg>
