<svg width="48" height="48" viewBox="0 0 48 48" fill="none" xmlns="http://www.w3.org/2000/svg">
<rect width="48" height="48" rx="8" fill="white"/>
<path opacity="0.4" d="M26.1006 21.8431V19.4192C25.6248 19.4192 25.2302 19.0359 25.2302 18.5737V15.6877C25.2302 15.3033 24.9168 15 24.5222 15H16.5493C14.0426 15 12 16.983 12 19.4192V22.338C12 22.5646 12.0928 22.7788 12.2553 22.9366C12.4178 23.0933 12.6383 23.1835 12.8704 23.1835C13.7524 23.1835 14.4255 23.7922 14.4255 24.5927C14.4255 25.428 13.7408 26.0932 12.882 26.1033C12.4062 26.1033 12 26.4303 12 26.9038V29.7909C12 32.226 14.0426 34.1989 16.5377 34.1989H24.5222C24.9168 34.1989 25.2302 33.8934 25.2302 33.5112V31.075C25.2302 30.6026 25.6248 30.2295 26.1006 30.2295V28.0435C25.6248 28.0435 25.2302 27.6591 25.2302 27.198V22.6886C25.2302 22.2264 25.6248 21.8431 26.1006 21.8431" fill="#3F3D65"/>
<path d="M33.5755 24.5938C33.5755 25.428 34.2718 26.0932 35.119 26.1045C35.5948 26.1045 36.001 26.4314 36.001 26.8936V29.7909C36.001 32.2271 33.97 34.2 31.4633 34.2H27.6799C27.2969 34.2 26.972 33.8945 26.972 33.5112V31.0761C26.972 30.6026 26.589 30.2306 26.1016 30.2306V28.0446C26.589 28.0446 26.972 27.6602 26.972 27.1991V22.6897C26.972 22.2264 26.589 21.8442 26.1016 21.8442V19.4192C26.589 19.4192 26.972 19.0359 26.972 18.5737V15.6888C26.972 15.3044 27.2969 15 27.6799 15H31.4633C33.97 15 36.001 16.9729 36.001 19.408V22.2489C36.001 22.4744 35.9081 22.6897 35.7457 22.8464C35.5832 23.0042 35.3627 23.0944 35.1306 23.0944C34.2718 23.0944 33.5755 23.772 33.5755 24.5938" fill="#3F3D65"/>
</svg>
