<svg width="14" height="17" viewBox="0 0 14 17" fill="none" xmlns="http://www.w3.org/2000/svg">
<path opacity="0.4" d="M12.4463 6.30528C12.0851 6.30528 11.6066 6.29728 11.0109 6.29728C9.55818 6.29728 8.36365 5.09488 8.36365 3.62848V1.05568C8.36365 0.853277 8.20206 0.688477 8.00165 0.688477H3.77012C1.79535 0.688477 0.199219 2.30928 0.199219 4.29568V12.9157C0.199219 14.9997 1.8714 16.6885 3.93488 16.6885H10.2362C12.2039 16.6885 13.7992 15.0781 13.7992 13.0901V6.66528C13.7992 6.46208 13.6384 6.29808 13.4372 6.29888C13.099 6.30128 12.6934 6.30528 12.4463 6.30528Z" fill="#9F9EB2"/>
<path opacity="0.4" d="M10.2681 1.14237C10.0289 0.893572 9.61133 1.06477 9.61133 1.40957V3.51917C9.61133 4.40397 10.3401 5.13197 11.2249 5.13197C11.7825 5.13837 12.5569 5.13997 13.2145 5.13837C13.5513 5.13757 13.7225 4.73517 13.4889 4.49197C12.6449 3.61437 11.1337 2.04157 10.2681 1.14237Z" fill="#9F9EB2"/>
<path fill-rule="evenodd" clip-rule="evenodd" d="M4.57958 8.19852H7.28758C7.61638 8.19852 7.88358 7.93212 7.88358 7.60332C7.88358 7.27452 7.61638 7.00732 7.28758 7.00732H4.57958C4.25078 7.00732 3.98438 7.27452 3.98438 7.60332C3.98438 7.93212 4.25078 8.19852 4.57958 8.19852ZM4.57957 12.1938H8.93477C9.26357 12.1938 9.53077 11.9274 9.53077 11.5986C9.53077 11.2698 9.26357 11.0026 8.93477 11.0026H4.57957C4.25077 11.0026 3.98438 11.2698 3.98438 11.5986C3.98438 11.9274 4.25077 12.1938 4.57957 12.1938Z" fill="#9F9EB2"/>
</svg>
