<svg width="16" height="16" viewBox="0 0 16 16" fill="none" xmlns="http://www.w3.org/2000/svg">
<path d="M1.33398 11.9974H6.00065V13.3307H1.33398V11.9974ZM1.33398 7.33073H7.33399V8.66406H1.33398V7.33073ZM1.33398 2.66406H14.6673V3.9974H1.33398V2.66406ZM13.7833 8.68073L14.554 8.42006L15.2207 9.57473L14.61 10.1114C14.6869 10.4758 14.6869 10.8523 14.61 11.2167L15.2207 11.7534L14.554 12.9081L13.7833 12.6474C13.51 12.8941 13.1847 13.0841 12.8267 13.2007L12.6673 13.9974H11.334L11.174 13.2001C10.8202 13.0844 10.4945 12.8959 10.218 12.6467L9.44732 12.9081L8.78065 11.7534L9.39132 11.2167C9.31446 10.8523 9.31446 10.4758 9.39132 10.1114L8.78065 9.57473L9.44732 8.42006L10.218 8.68073C10.4913 8.43406 10.8167 8.24406 11.1747 8.12739L11.334 7.33073H12.6673L12.8273 8.12806C13.1847 8.24406 13.51 8.43473 13.7833 8.68139V8.68073ZM12.0007 11.9974C12.3543 11.9974 12.6934 11.8569 12.9435 11.6069C13.1935 11.3568 13.334 11.0177 13.334 10.6641C13.334 10.3104 13.1935 9.9713 12.9435 9.72125C12.6934 9.4712 12.3543 9.33073 12.0007 9.33073C11.647 9.33073 11.3079 9.4712 11.0578 9.72125C10.8078 9.9713 10.6673 10.3104 10.6673 10.6641C10.6673 11.0177 10.8078 11.3568 11.0578 11.6069C11.3079 11.8569 11.647 11.9974 12.0007 11.9974Z" fill="white"/>
</svg>
