<svg width="16" height="18" viewBox="0 0 16 18" fill="none" xmlns="http://www.w3.org/2000/svg">
<path fill-rule="evenodd" clip-rule="evenodd" d="M4.47335 6.26147H11.5254C13.4899 6.26147 15.0827 7.81915 15.0827 9.74036V13.8544C15.0827 15.7756 13.4899 17.3333 11.5254 17.3333H4.47335C2.50881 17.3333 0.916016 15.7756 0.916016 13.8544V9.74036C0.916016 7.81915 2.50881 6.26147 4.47335 6.26147ZM7.99511 13.4412C8.41004 13.4412 8.74028 13.1182 8.74028 12.7124V10.874C8.74028 10.4765 8.41004 10.1536 7.99511 10.1536C7.58866 10.1536 7.25841 10.4765 7.25841 10.874V12.7124C7.25841 13.1182 7.58866 13.4412 7.99511 13.4412Z" fill="#CFCFD8"/>
<path opacity="0.4" d="M12.601 5.16325V6.38885C12.3046 6.30604 11.9913 6.26464 11.6695 6.26464H11.1191V5.16325C11.1191 3.48219 9.72195 2.11582 8.00298 2.11582C6.28401 2.11582 4.88682 3.47391 4.87835 5.14669V6.26464H4.33641C4.00617 6.26464 3.69286 6.30604 3.39648 6.39713V5.16325C3.40495 2.67893 5.46263 0.666626 7.98604 0.666626C10.5433 0.666626 12.601 2.67893 12.601 5.16325Z" fill="#CFCFD8"/>
</svg>
