<svg width="40" height="40" viewBox="0 0 40 40" fill="none" xmlns="http://www.w3.org/2000/svg">
<path d="M28.2031 8.20312V17.6562C28.2031 18.3124 27.6876 18.8281 27.0312 18.8281C26.3749 18.8281 25.8594 18.3124 25.8594 17.6562V8.20312C25.8594 4.96875 23.2344 2.34375 20 2.34375C16.7656 2.34375 14.1406 4.96875 14.1406 8.20312V17.6562C14.1406 18.3124 13.6251 18.8281 12.9688 18.8281C12.3124 18.8281 11.7969 18.3124 11.7969 17.6562V8.20312C11.7969 3.67969 15.4766 0 20 0C24.5234 0 28.2031 3.67969 28.2031 8.20312Z" fill="#596C76"/>
<path d="M28.2031 8.20312V17.6562C28.2031 18.3124 27.6876 18.8281 27.0312 18.8281C26.3749 18.8281 25.8594 18.3124 25.8594 17.6562V8.20312C25.8594 4.96875 23.2344 2.34375 20 2.34375V0C24.5234 0 28.2031 3.67969 28.2031 8.20312Z" fill="#465A61"/>
<path d="M31.7188 16.4844H8.28125C7.62492 16.4844 7.10938 16.9999 7.10938 17.6562V38.8281C7.10938 39.4843 7.62492 40 8.28125 40H31.7188C32.3751 40 32.8906 39.4843 32.8906 38.8281V17.6562C32.8906 16.9999 32.3751 16.4844 31.7188 16.4844Z" fill="#FDBF00"/>
<path d="M32.8906 17.6562V38.8281C32.8906 39.4843 32.3751 40 31.7188 40H20V16.4844H31.7188C32.3751 16.4844 32.8906 16.9999 32.8906 17.6562Z" fill="#FF9100"/>
<path d="M20 21.1719C18.0546 21.1719 16.4844 22.7421 16.4844 24.6875C16.4844 26.6327 18.0546 28.2031 20 28.2031C21.9454 28.2031 23.5156 26.6327 23.5156 24.6875C23.5156 22.7421 21.9454 21.1719 20 21.1719Z" fill="#F2F2F2"/>
<path d="M20 28.2031C16.7656 28.2031 14.1406 30.9062 14.1406 34.1406C14.1406 34.7968 14.6562 35.3125 15.3125 35.3125H24.6875C25.3438 35.3125 25.8594 34.7968 25.8594 34.1406C25.8594 30.9062 23.2344 28.2031 20 28.2031Z" fill="#F2F2F2"/>
<path d="M20 28.2031V21.1719C21.9454 21.1719 23.5156 22.7421 23.5156 24.6875C23.5156 26.6327 21.9454 28.2031 20 28.2031Z" fill="#DAEDFF"/>
<path d="M25.8594 34.1406C25.8594 34.7968 25.3438 35.3125 24.6875 35.3125H20V28.2031C23.2344 28.2031 25.8594 30.9062 25.8594 34.1406Z" fill="#DAEDFF"/>
</svg>
