<svg version="1.2" xmlns="http://www.w3.org/2000/svg" viewBox="0 0 192 36" width="192" height="36">
	<title>Logo-svg</title>
	<defs>
		<linearGradient id="g1" x1="19.3" y1="21.9" x2="17" y2="35.3" gradientUnits="userSpaceOnUse">
			<stop offset="0" stop-color="#fd28fc"/>
			<stop offset=".1" stop-color="#f029fc"/>
			<stop offset=".3" stop-color="#cf2cfb"/>
			<stop offset=".6" stop-color="#9832fa"/>
			<stop offset=".9" stop-color="#4e39f8"/>
			<stop offset="1" stop-color="#383bf8"/>
		</linearGradient>
		<linearGradient id="g2" x1="6.1" y1="10.6" x2="-2.1" y2="35.9" gradientUnits="userSpaceOnUse">
			<stop offset="0" stop-color="#fd0e38"/>
			<stop offset="1" stop-color="#ff933b"/>
		</linearGradient>
		<linearGradient id="g3" x1="5.2" y1="5.9" x2="19.7" y2="17.6" gradientUnits="userSpaceOnUse">
			<stop offset="0" stop-color="#fd0e38"/>
			<stop offset="1" stop-color="#fd28fc"/>
		</linearGradient>
	</defs>
	<style>
		.s0 { fill: url(#g1) } 
		.s1 { fill: url(#g2) } 
		.s2 { fill: url(#g3) } 
		.s3 { fill: #ffffff } 
	</style>
	<path id="Layer" class="s0" d="m27.3 18.7q0 0.9-0.4 1.7c-0.3 0.6-0.8 1.1-1.4 1.4l-6.6 4.1c-0.2 0.2-0.4 0.4-0.5 0.7 0 0.3 0 0.6 0.2 0.8l1.6 2.8c0.4 0.5 0.6 1.2 0.6 1.9q0 0.8-0.4 1.6-0.4 0.8-1.2 1.3-0.8 0.5-1.7 0.6-0.9 0-1.8-0.4c-0.6-0.3-1.1-0.8-1.5-1.3l-2-3.3c-0.5-0.8-0.9-1.8-1.1-2.8-0.1-1-0.1-2 0.2-3 0.5-1.9 1.8-3.5 3.5-4.5l7-4.3c0.6-0.4 1.2-0.6 1.9-0.6q0.4 0 0.8 0.1 0.7 0.2 1.3 0.5 0.5 0.4 0.9 1 0.5 0.8 0.6 1.7z"/>
	<path id="Layer" class="s1" d="m6.1 3.3c0.7 0.7 1 1.6 1 2.5v24.3c0 0.9-0.3 1.8-1 2.4-0.7 0.7-1.6 1-2.5 1-1 0-1.9-0.3-2.5-1-0.7-0.6-1.1-1.5-1.1-2.4v-24.3c0-0.9 0.4-1.8 1.1-2.5 0.6-0.6 1.5-1 2.5-1 0.9 0 1.8 0.4 2.5 1z"/>
	<path id="Layer" class="s2" d="m25.8 21.7q-0.6 0.4-1.3 0.5-0.7 0.2-1.4 0.1-0.7-0.2-1.3-0.5l-20.2-13.1q-0.6-0.4-1-0.9-0.4-0.6-0.5-1.3-0.2-0.6 0-1.3 0.1-0.7 0.5-1.3 0.5-0.7 1.3-1.1 0.8-0.5 1.7-0.5c0.6 0 1.3 0.2 1.9 0.6l20.1 13.1c0.8 0.5 1.4 1.2 1.6 2.1 0.2 0.9 0 1.8-0.5 2.6q-0.4 0.6-0.9 1z"/>
	<path id="Layer" fill-rule="evenodd" class="s3" d="m50.8 30h-4.2l-5.1-8.2h-3v8.2h-3.4v-20.5h7.7q2.6 0 4.4 1.8 1.9 1.8 1.9 4.3 0 2.1-1.1 3.7-1 1.5-2.8 2.1zm-12.3-17.1v5.6h4.2q1.3 0 2.1-0.8 0.8-0.8 0.8-2.1 0-1.2-0.8-2-0.8-0.7-2.1-0.7zm25.7 9.3q0 0.9-0.1 1.4h-10.9q0.3 1.8 1.4 2.8 1.1 1 2.8 1 1.3 0 2.3-0.5 1-0.5 1.5-1.4l2.6 1.7q-0.8 1.5-2.5 2.3-1.7 0.8-3.9 0.8-2.1 0-3.8-1-1.7-1-2.7-2.7-0.9-1.7-0.9-3.8 0-2.1 0.9-3.7 1-1.7 2.7-2.7 1.7-1 3.7-1 1.9 0 3.5 0.9 1.6 0.9 2.5 2.5 0.9 1.5 0.9 3.4zm-10.9-1.1h7.5q-0.2-1.3-1.2-2.1-1-0.9-2.5-0.9-1.4 0-2.4 0.8-1 0.8-1.4 2.2zm23.2-11.6h3.2v20.5h-3.2v-1.9q-0.6 1-1.9 1.6-1.3 0.6-2.7 0.6-2.9 0-4.9-2.2-2-2.1-2-5.3 0-3.1 2-5.2 2-2.2 4.9-2.2 1.4 0 2.7 0.6 1.3 0.7 1.9 1.6zm-3.9 17.7q1.2 0 2.2-0.6 1.1-0.6 1.7-1.5v-4.4q-0.6-1-1.6-1.6-1.1-0.6-2.3-0.6-1.9 0-3.1 1.3-1.3 1.2-1.3 3.1 0 1.8 1.3 3.1 1.2 1.2 3.1 1.2zm16.5-17.9q1.9 0 3.9 0.8 2 0.8 3 2.1l-2 2.6q-1-1-2.4-1.6-1.4-0.6-2.8-0.6-1.4 0-2.3 0.6-0.9 0.6-0.9 1.7 0 0.7 0.4 1.2 0.4 0.5 1 0.9 0.6 0.3 1.5 0.6 0.8 0.2 1.7 0.5 0.9 0.2 1.8 0.5 0.9 0.3 1.7 0.8 0.8 0.5 1.4 1.1 0.7 0.6 1.1 1.5 0.3 0.9 0.3 2.1 0 1.2-0.5 2.4-0.5 1.1-1.4 1.9-0.9 0.9-2.3 1.4-1.4 0.5-3.1 0.5-2.3 0-4.5-1-2.2-1-3.6-2.5l2.2-2.5q1.4 1.3 2.8 2 1.4 0.7 3.1 0.7 1.7 0 2.8-0.8 1-0.8 1-2.1 0-0.6-0.4-1.1-0.3-0.5-0.9-0.8-0.7-0.4-1.5-0.6-0.8-0.3-1.7-0.5-0.9-0.2-1.8-0.5-0.9-0.3-1.7-0.8-0.8-0.4-1.4-1-0.7-0.6-1-1.5-0.4-1-0.4-2.2 0-2.5 1.9-4.2 2-1.6 5-1.6zm12.2 20.7l-5.2-14.3h3.5l3 9.3 3.3-9.3h2.7l3.3 9.3 3-9.3h3.5l-5.1 14.3h-2.7l-3.3-9.2-3.4 9.2zm18.5-20.3q0.6-0.6 1.5-0.6 0.8 0 1.4 0.6 0.7 0.6 0.7 1.5 0 0.8-0.7 1.4-0.6 0.7-1.4 0.7-0.9 0-1.5-0.7-0.6-0.6-0.6-1.4 0-0.9 0.6-1.5zm-0.2 6h3.3v14.3h-3.3zm14.1 11.3l0.2 2.9q-0.7 0.3-1.7 0.3-2.5 0-3.9-1.5-1.5-1.5-1.5-4v-5.9h-2.8v-3.1h2.8v-3.8h3.2v3.8h3.8v3.1h-3.8v5.7q0 1.2 0.8 1.9 0.7 0.8 1.8 0.8 0.5 0 1.1-0.2zm14.5-0.6q-0.8 1.8-2.6 2.8-1.8 1.1-4 1.1-3.2 0-5.3-2.1-2.2-2.2-2.2-5.3 0-2.1 1-3.8 1-1.7 2.7-2.7 1.7-1 3.8-1 2 0 3.7 1 1.6 0.9 2.4 2.5l-2.7 1.5q-0.5-0.8-1.4-1.3-0.9-0.6-2-0.6-1.8 0-3.1 1.3-1.2 1.2-1.2 3.1 0 1.8 1.3 3 1.2 1.3 3 1.3 1.3 0 2.2-0.6 1-0.6 1.5-1.5zm9.1-11q2.7 0 4.3 1.7 1.6 1.8 1.6 4.7v8.2h-3.3v-7.6q0-1.8-0.9-2.8-0.9-1-2.5-1-1.1 0-2.1 0.6-0.9 0.5-1.4 1.4v9.4h-3.3v-20.5h3.3v8.1q0.6-1 1.7-1.6 1.2-0.6 2.6-0.6zm21.9 6.8q0 0.8-0.1 1.4h-10.9q0.3 1.8 1.4 2.8 1.2 0.9 2.9 0.9 1.2 0 2.2-0.5 1-0.4 1.5-1.3l2.6 1.7q-0.8 1.4-2.5 2.3-1.7 0.8-3.9 0.8-2 0-3.7-1-1.7-1-2.7-2.7-1-1.7-1-3.8 0-2.1 1-3.8 1-1.7 2.6-2.6 1.7-1 3.8-1 1.9 0 3.4 0.9 1.6 0.9 2.5 2.5 0.9 1.5 0.9 3.4zm-10.8-1.1h7.4q-0.1-1.3-1.1-2.2-1-0.8-2.5-0.8-1.5 0-2.5 0.8-1 0.8-1.3 2.2zm17.8 9.2q-1.7 0-3.4-0.6-1.7-0.5-2.8-1.5l1.3-2.4q0.8 0.8 2.2 1.3 1.4 0.5 2.6 0.5 1.1 0 1.7-0.5 0.7-0.4 0.7-1.1 0-0.5-0.4-0.8-0.3-0.3-0.9-0.5-0.5-0.2-1.2-0.4-0.7-0.2-1.5-0.3-0.7-0.2-1.4-0.5-0.8-0.4-1.3-0.8-0.6-0.4-0.9-1.1-0.4-0.8-0.4-1.7 0-2 1.6-3.2 1.5-1.3 4-1.3 1.6 0 3 0.4 1.4 0.5 2.3 1.3l-1.2 2.5q-0.8-0.7-2.1-1.1-1.3-0.4-2.3-0.4-0.9 0-1.5 0.4-0.5 0.4-0.5 1.1 0 0.5 0.4 0.9 0.5 0.3 1.2 0.5 0.7 0.2 1.6 0.4 0.8 0.2 1.6 0.6 0.9 0.3 1.6 0.7 0.7 0.5 1.2 1.3 0.4 0.8 0.4 1.9 0 1.9-1.6 3.2-1.5 1.2-4 1.2z"/>
</svg>