<svg width="20" height="20" viewBox="0 0 20 20" fill="none" xmlns="http://www.w3.org/2000/svg">
<rect opacity="0.01" width="20" height="20" fill="#C1C7D0"/>
<path opacity="0.3" fill-rule="evenodd" clip-rule="evenodd" d="M1.42773 9.9933C1.42773 7.62637 2.26457 5.60606 3.93825 3.93239C5.61192 2.25871 7.63223 1.42188 9.99916 1.42188C12.3661 1.42188 14.3864 2.25871 16.0601 3.93239C17.7338 5.60606 18.5706 7.62637 18.5706 9.9933C18.5706 12.3602 17.7338 14.3805 16.0601 16.0542C14.3864 17.7279 12.3661 18.5647 9.99916 18.5647C7.63223 18.5647 5.61192 17.7279 3.93825 16.0542C2.26457 14.3805 1.42773 12.3602 1.42773 9.9933Z" fill="#C1C7D0"/>
<path fill-rule="evenodd" clip-rule="evenodd" d="M5.1381 12.146C4.97296 11.8986 4.9524 11.5819 5.08417 11.3152C5.21593 11.0485 5.47999 10.8724 5.77683 10.8533C6.07367 10.8342 6.35816 10.9749 6.52308 11.2224C7.48596 12.6674 8.62239 13.3489 9.99239 13.3489C11.3624 13.3489 12.4988 12.6667 13.4617 11.2224C13.7167 10.84 14.2335 10.7367 14.616 10.9917C14.9984 11.2468 15.1017 11.7635 14.8467 12.146C13.5902 14.031 11.9517 15.0139 9.98953 15.0139C8.02738 15.0139 6.39167 14.031 5.1381 12.146Z" fill="#C1C7D0"/>
</svg>
