<svg width="16" height="17" viewBox="0 0 16 17" fill="none" xmlns="http://www.w3.org/2000/svg">
<path d="M5.5 0.688477H1.5C0.671573 0.688477 0 1.36005 0 2.18848V6.18848C0 7.0169 0.671573 7.68848 1.5 7.68848H5.5C6.32843 7.68848 7 7.0169 7 6.18848V2.18848C7 1.36005 6.32843 0.688477 5.5 0.688477Z" fill="#9F9EB2"/>
<path opacity="0.3" fill-rule="evenodd" clip-rule="evenodd" d="M1.5 9.68848H5.5C6.32843 9.68848 7 10.36 7 11.1885V15.1885C7 16.0169 6.32843 16.6885 5.5 16.6885H1.5C0.671573 16.6885 0 16.0169 0 15.1885V11.1885C0 10.36 0.671573 9.68848 1.5 9.68848ZM10.5 0.688477H14.5C15.3284 0.688477 16 1.36005 16 2.18848V6.18848C16 7.0169 15.3284 7.68848 14.5 7.68848H10.5C9.67157 7.68848 9 7.0169 9 6.18848V2.18848C9 1.36005 9.67157 0.688477 10.5 0.688477ZM10.5 9.68848H14.5C15.3284 9.68848 16 10.36 16 11.1885V15.1885C16 16.0169 15.3284 16.6885 14.5 16.6885H10.5C9.67157 16.6885 9 16.0169 9 15.1885V11.1885C9 10.36 9.67157 9.68848 10.5 9.68848Z" fill="#9F9EB2"/>
</svg>
