<svg width="81" height="20" viewBox="0 0 81 20" fill="none" xmlns="http://www.w3.org/2000/svg">
<path d="M30.6681 8.39512C30.4609 9.94954 29.2173 9.94954 28.0774 9.94954H27.4557L27.9738 6.94433C27.9738 6.73707 28.1811 6.63344 28.3883 6.63344H28.6992C29.5282 6.63344 30.2536 6.63344 30.6681 7.04796C30.6681 7.46247 30.6681 7.87698 30.6681 8.39512ZM30.15 4.25H25.694C25.3831 4.25 25.1759 4.45726 25.0722 4.76814L23.3105 16.1672C23.3105 16.3745 23.4142 16.5817 23.7251 16.5817H25.7976C26.1085 16.5817 26.3158 16.3745 26.4194 16.0636L26.9375 12.9548C26.9375 12.6439 27.2484 12.4366 27.5593 12.4366H29.0101C31.9117 12.4366 33.5697 10.9858 34.0879 8.18786C34.2951 6.94433 34.0879 6.01168 33.5697 5.28628C32.7407 4.66451 31.6008 4.25 30.15 4.25Z" fill="#263577"/>
<path d="M40.4086 12.5399C40.2013 13.7834 39.2687 14.6124 38.0251 14.6124C37.4034 14.6124 36.8852 14.4052 36.5743 13.9907C36.2635 13.5762 36.1598 13.058 36.2634 12.5399C36.4707 11.2963 37.4034 10.4673 38.6469 10.4673C39.2687 10.4673 39.7868 10.6746 40.0977 11.0891C40.3049 11.4 40.5122 11.9181 40.4086 12.5399ZM43.3102 8.39476H41.2376C41.0303 8.39476 40.9267 8.49838 40.8231 8.70564L40.7195 9.32741L40.6158 9.12015C40.2013 8.49839 39.165 8.1875 38.1288 8.1875C35.7453 8.1875 33.7764 9.94918 33.3619 12.4363C33.1546 13.6798 33.4655 14.8197 34.1909 15.6487C34.8126 16.3741 35.7453 16.685 36.8852 16.685C38.7505 16.685 39.7868 15.4415 39.7868 15.4415L39.6832 16.0632C39.6832 16.2705 39.7868 16.4777 40.0977 16.4777H41.963C42.2739 16.4777 42.4811 16.2705 42.5847 15.9596L43.7247 8.70564C43.7247 8.60201 43.621 8.39476 43.3102 8.39476Z" fill="#263577"/>
<path d="M54.6086 8.39844H52.4324C52.2251 8.39844 52.0178 8.50206 51.9142 8.70932L49.0126 13.0617L47.7691 8.91658C47.6655 8.60569 47.4582 8.50206 47.1473 8.50206H45.0748C44.8675 8.50206 44.6603 8.70932 44.7639 9.0202L47.1473 15.8597L44.9711 18.9685C44.7639 19.1757 44.9711 19.5903 45.282 19.5903H47.4582C47.6655 19.5903 47.8727 19.4866 47.9764 19.2794L55.0231 9.0202C55.1267 8.70932 54.9194 8.39844 54.6086 8.39844Z" fill="#263577"/>
<path d="M62.172 8.39512C61.9648 9.94954 60.7213 9.94954 59.5813 9.94954H58.9596L59.4777 6.94433C59.4777 6.73707 59.685 6.63344 59.8923 6.63344H60.2031C61.0321 6.63344 61.7575 6.63344 62.172 7.04796C62.2757 7.46247 62.2757 7.87698 62.172 8.39512ZM61.6539 4.25H57.1979C56.887 4.25 56.6798 4.45726 56.5761 4.76814L54.8145 16.1672C54.8145 16.3745 54.9181 16.5817 55.229 16.5817H57.5088C57.716 16.5817 57.9233 16.4781 57.9233 16.1672L58.4414 12.9548C58.4414 12.6439 58.7523 12.4366 59.0632 12.4366H60.514C63.4156 12.4366 65.0737 10.9858 65.5918 8.18786C65.799 6.94433 65.5918 6.01168 65.0737 5.28628C64.3483 4.66451 63.2083 4.25 61.6539 4.25Z" fill="#2199D6"/>
<path d="M72.0179 12.5399C71.8107 13.7834 70.878 14.6124 69.6345 14.6124C69.0127 14.6124 68.4946 14.4052 68.1837 13.9907C67.8728 13.5762 67.7692 13.058 67.8728 12.5399C68.0801 11.2963 69.0127 10.4673 70.2563 10.4673C70.878 10.4673 71.3962 10.6746 71.7071 11.0891C71.9143 11.4 72.1216 11.9181 72.0179 12.5399ZM74.9195 8.39476H72.847C72.6397 8.39476 72.5361 8.49838 72.4324 8.70564L72.3288 9.32741L72.2252 9.12015C71.8107 8.49839 70.7744 8.1875 69.7381 8.1875C67.3547 8.1875 65.3857 9.94918 64.9712 12.4363C64.764 13.6798 65.0749 14.8197 65.8002 15.6487C66.422 16.3741 67.3547 16.685 68.4946 16.685C70.3599 16.685 71.3962 15.4415 71.3962 15.4415L71.2926 16.0632C71.2926 16.2705 71.3962 16.4777 71.7071 16.4777H73.5723C73.8832 16.4777 74.0905 16.2705 74.1941 15.9596L75.334 8.70564C75.334 8.60201 75.1268 8.39476 74.9195 8.39476Z" fill="#2199D6"/>
<path d="M77.4024 4.56088L75.5371 16.1672C75.5371 16.3745 75.6408 16.5817 75.9516 16.5817H77.8169C78.1278 16.5817 78.3351 16.3745 78.4387 16.0636L80.2004 4.66451C80.2004 4.45726 80.0967 4.25 79.7859 4.25H77.7133C77.6097 4.25 77.5061 4.45726 77.4024 4.56088Z" fill="#2199D6"/>
<path d="M4.86377 18.7599L5.17464 16.5837H4.44925H0.822266L3.30935 0.728626C3.30935 0.728626 3.30934 0.625 3.41297 0.625H3.5166H9.63064C11.5996 0.625 13.0504 1.03951 13.7758 1.86854C14.0866 2.28305 14.2939 2.69756 14.3975 3.11207C14.5012 3.63021 14.5012 4.14835 14.3975 4.87375V5.28826L14.7084 5.49552C15.0193 5.59914 15.2266 5.8064 15.4338 6.01366C15.7447 6.32454 15.952 6.73905 15.952 7.25719C16.0556 7.77533 16.0556 8.3971 15.8483 9.1225C15.6411 9.95152 15.4338 10.5733 15.1229 11.1951C14.812 11.7132 14.3975 12.1277 13.983 12.5422C13.5685 12.8531 12.9467 13.0604 12.4286 13.2676C11.8068 13.3712 11.1851 13.4749 10.4597 13.4749H9.94153C9.63065 13.4749 9.31977 13.5785 9.00889 13.7858C8.80163 13.993 8.59437 14.3039 8.49075 14.6148V14.822L7.86897 18.6563V18.7599V18.8635C7.86897 18.8635 7.86897 18.8635 7.76534 18.8635H4.86377V18.7599Z" fill="#263577"/>
<path d="M15.1251 4.875C15.1251 4.97863 15.1251 5.08226 15.0214 5.18589C14.1924 9.33101 11.4981 10.6782 7.97476 10.6782H6.21307C5.79855 10.6782 5.38406 10.9891 5.38406 11.4036L4.45139 17.2067L4.24414 18.8648C4.24414 19.1757 4.45139 19.3829 4.65865 19.3829H7.87112C8.28563 19.3829 8.59651 19.072 8.59651 18.7612V18.5539L9.21829 14.8233V14.616C9.32192 14.2015 9.6328 13.9943 9.94368 13.9943H10.4618C13.5707 13.9943 15.9541 12.7507 16.5759 9.12375C16.8868 7.56933 16.6795 6.32579 15.9541 5.49677C15.7469 5.28951 15.436 5.08226 15.1251 4.875Z" fill="#2199D6"/>
<path d="M14.2968 4.56088C14.1931 4.56088 14.0895 4.45726 13.8823 4.45726C13.7786 4.45726 13.5714 4.35363 13.4677 4.35363C12.9496 4.25 12.4315 4.25 11.9133 4.25H7.14644C7.04281 4.25 6.93918 4.25 6.83555 4.35363C6.6283 4.45725 6.42105 4.66451 6.42105 4.87177L5.38477 11.2967V11.504C5.48839 11.0894 5.79926 10.7786 6.21378 10.7786H7.97547C11.4988 10.7786 14.1931 9.32777 15.0222 5.28628C15.0222 5.18265 15.0222 5.07902 15.1258 4.9754C14.9185 4.87177 14.7113 4.76814 14.504 4.66451C14.4004 4.56089 14.2968 4.56088 14.2968 4.56088Z" fill="#252C5E"/>
<path d="M6.41885 4.87051C6.41885 4.66326 6.6261 4.456 6.83336 4.35237C6.93699 4.35237 7.04062 4.24875 7.14425 4.24875H11.9111C12.4293 4.24875 13.051 4.24874 13.4655 4.35237C13.5692 4.35237 13.7764 4.35238 13.8801 4.456C13.9837 4.456 14.0873 4.55963 14.2946 4.55963C14.3982 4.55963 14.3982 4.55963 14.5018 4.66326C14.7091 4.76689 14.9163 4.87051 15.1236 4.97414C15.3309 3.41972 15.1236 2.38344 14.2946 1.45079C13.3619 0.41451 11.7039 0 9.63131 0H3.51726C3.10275 0 2.68824 0.310881 2.68824 0.725393L0.201172 16.6841C0.201172 16.995 0.408428 17.3059 0.719312 17.3059H4.44991L5.38257 11.2955L6.41885 4.87051Z" fill="#263577"/>
</svg>
