<svg width="20" height="20" viewBox="0 0 20 20" fill="none" xmlns="http://www.w3.org/2000/svg">
<g id="Icon right">
<g id="Show">
<path id="Fill 1" opacity="0.4" fill-rule="evenodd" clip-rule="evenodd" d="M14.7798 5.03842C16.2026 6.13661 17.414 7.74549 18.2839 9.75762C18.3489 9.91034 18.3489 10.0889 18.2839 10.2344C16.5441 14.2586 13.4465 16.6667 9.99935 16.6667H9.99122C6.55219 16.6667 3.45463 14.2586 1.7148 10.2344C1.64976 10.0889 1.64976 9.91034 1.7148 9.75762C3.45463 5.73257 6.55219 3.33337 9.99122 3.33337H9.99935C11.7229 3.33337 13.3571 3.93135 14.7798 5.03842ZM6.74732 10C6.74732 11.7778 8.2026 13.2243 9.99935 13.2243C11.788 13.2243 13.2433 11.7778 13.2433 10C13.2433 8.21418 11.788 6.76772 9.99935 6.76772C8.2026 6.76772 6.74732 8.21418 6.74732 10Z" fill="#9F9EB2"/>
<path id="Fill 4" d="M12.0257 9.9975C12.0257 11.1046 11.1151 12.0096 10.0013 12.0096C8.87932 12.0096 7.96875 11.1046 7.96875 9.9975C7.96875 9.86012 7.98501 9.73164 8.0094 9.60235H8.05005C8.95249 9.60235 9.6842 8.89123 9.71672 8.00154C9.80615 7.98618 9.90371 7.97729 10.0013 7.97729C11.1151 7.97729 12.0257 8.88235 12.0257 9.9975Z" fill="#9F9EB2"/>
</g>
</g>
</svg>
