<svg width="101" height="22" viewBox="0 0 101 22" fill="none" xmlns="http://www.w3.org/2000/svg">
<path fill-rule="evenodd" clip-rule="evenodd" d="M26.9123 7.89888C27.2448 6.66007 27.1065 5.70985 26.4997 5.0482C25.8918 4.38545 24.8275 4.05518 23.3067 4.05518H17.4769L13.9668 17.151H16.7999L18.2154 11.8721H20.0731C20.4889 11.8721 20.817 11.939 21.0573 12.074C21.2976 12.2089 21.438 12.4481 21.4808 12.7916L21.9867 17.151H25.0217L24.529 13.0856C24.4292 12.1782 24.0133 11.6449 23.2836 11.4858C24.2141 11.2159 24.9932 10.7682 25.6219 10.1428C26.2484 9.51734 26.6786 8.77011 26.9123 7.89888ZM24.2075 7.9724C24.0495 8.56163 23.7434 8.99285 23.2891 9.26936C22.8349 9.54477 22.1974 9.68303 21.3755 9.68303H18.764L19.6802 6.26177H22.2928C23.1136 6.26177 23.6787 6.40002 23.9848 6.67544C24.2898 6.95194 24.3644 7.38427 24.2075 7.9724Z" fill="#162C52"/>
<path fill-rule="evenodd" clip-rule="evenodd" d="M35.0394 7.82514L34.6849 9.14953C34.5313 8.67113 34.2351 8.29148 33.7951 8.00948C33.3551 7.72748 32.8108 7.58594 32.1601 7.58594C31.3635 7.58594 30.5976 7.79113 29.8614 8.2026C29.1262 8.61297 28.4832 9.19233 27.9335 9.94066C27.3838 10.689 26.9811 11.5405 26.7243 12.4973C26.4686 13.4541 26.4171 14.2968 26.5707 15.0265C26.7254 15.7561 27.059 16.3168 27.5736 16.7097C28.0871 17.1025 28.7498 17.2978 29.5585 17.2978C30.2081 17.2978 30.827 17.1628 31.4151 16.8929C32.0021 16.6241 32.5003 16.2488 32.9107 15.7715L32.5409 17.1508H35.2807L37.7803 7.82514H35.0394ZM33.7973 12.46C33.5613 13.3433 33.196 14.0181 32.7044 14.4833C32.2106 14.9497 31.6214 15.1823 30.9345 15.1823C30.2355 15.1823 29.7604 14.9529 29.5103 14.4932C29.259 14.0334 29.2502 13.3685 29.4839 12.4973C29.7165 11.6261 30.0885 10.9458 30.6009 10.4553C31.1123 9.9648 31.7114 9.71901 32.3982 9.71901C33.084 9.71901 33.5493 9.95602 33.7907 10.4278C34.031 10.8997 34.0343 11.5778 33.7973 12.46Z" fill="#162C52"/>
<path fill-rule="evenodd" clip-rule="evenodd" d="M47.6327 7.82764H39.6688L39.1114 9.90585H43.7462L37.6191 15.2034L37.0957 17.1533H45.3175L45.8749 15.075H40.9087L47.1302 9.70395L47.6327 7.82764Z" fill="#162C52"/>
<path fill-rule="evenodd" clip-rule="evenodd" d="M56.2481 8.17407C55.6172 7.78235 54.8118 7.58594 53.8308 7.58594C52.8367 7.58594 51.9172 7.78235 51.0701 8.17407C50.223 8.56689 49.501 9.13088 48.9063 9.86714C48.3105 10.6023 47.8815 11.4604 47.6181 12.4424C47.3548 13.4234 47.3241 14.2814 47.526 15.0166C47.7279 15.7529 48.1459 16.3168 48.7834 16.7097C49.4198 17.1025 50.2351 17.2978 51.2281 17.2978C52.2102 17.2978 53.1198 17.1025 53.9614 16.7097C54.8019 16.3168 55.5206 15.7529 56.1164 15.0166C56.7111 14.2814 57.1402 13.4234 57.4035 12.4424C57.6669 11.4604 57.6976 10.6023 57.4957 9.86714C57.2938 9.13088 56.8779 8.56689 56.2481 8.17407ZM54.645 12.4424C54.3981 13.3608 54.0327 14.0488 53.5499 14.502C53.0671 14.9562 52.4823 15.1823 51.7954 15.1823C50.3602 15.1823 49.8884 14.2694 50.3777 12.4424C50.6213 11.535 50.9878 10.8514 51.4783 10.3916C51.9699 9.93078 52.5646 9.70146 53.2635 9.70146C53.9493 9.70146 54.4135 9.93078 54.6516 10.3916C54.8897 10.8514 54.8886 11.535 54.645 12.4424Z" fill="#162C52"/>
<path fill-rule="evenodd" clip-rule="evenodd" d="M86.1549 7.82514L85.7994 9.14953C85.6457 8.67113 85.3495 8.29148 84.9106 8.00948C84.4706 7.72748 83.9252 7.58594 83.2757 7.58594C82.479 7.58594 81.7121 7.79113 80.9769 8.2026C80.2417 8.61297 79.5987 9.19233 79.049 9.94066C78.4993 10.689 78.0955 11.5405 77.8398 12.4973C77.5831 13.4541 77.5326 14.2968 77.6862 15.0265C77.8398 15.7561 78.1734 16.3168 78.688 16.7097C79.2026 17.1025 79.8643 17.2978 80.6741 17.2978C81.3236 17.2978 81.9425 17.1628 82.5295 16.8929C83.1166 16.6241 83.6147 16.2488 84.0262 15.7715L83.6553 17.1508H86.3963L88.8947 7.82514H86.1549ZM84.9128 12.46C84.6758 13.3433 84.3115 14.0181 83.8188 14.4833C83.3261 14.9497 82.7358 15.1823 82.0489 15.1823C81.3511 15.1823 80.8749 14.9529 80.6247 14.4932C80.3734 14.0334 80.3657 13.3685 80.5994 12.4973C80.8321 11.6261 81.204 10.9458 81.7154 10.4553C82.2267 9.9648 82.8258 9.71901 83.5127 9.71901C84.1996 9.71901 84.6648 9.95602 84.9051 10.4278C85.1465 10.8997 85.1498 11.5778 84.9128 12.46Z" fill="#162C52"/>
<path fill-rule="evenodd" clip-rule="evenodd" d="M66.0196 10.3258L66.7175 7.78676C66.4805 7.66496 66.1666 7.60352 65.7738 7.60352C65.1484 7.60352 64.546 7.75933 63.9655 8.07205C63.4663 8.34088 63.0416 8.71724 62.6839 9.18906L63.0471 7.82297L62.2538 7.82407H60.3073L57.7891 17.1497H60.5673L61.8742 12.2757C62.064 11.5646 62.4052 11.0094 62.899 10.6111C63.3917 10.2128 64.0061 10.0131 64.7424 10.0131C65.1956 10.0131 65.6213 10.1173 66.0196 10.3258Z" fill="#162C52"/>
<path fill-rule="evenodd" clip-rule="evenodd" d="M75.6939 8.2015C75.1782 7.79113 74.522 7.58594 73.7254 7.58594C73.0265 7.58594 72.3615 7.74504 71.7306 8.06434C71.0997 8.38365 70.5872 8.81816 70.1944 9.37008L70.2032 9.30864L70.6695 7.82404H70.133V7.82514H67.9582L67.2669 10.4037C67.2592 10.4333 67.2527 10.4619 67.245 10.4915L64.3965 21.1239H67.1737L68.6078 15.7715C68.7493 16.2488 69.0412 16.623 69.4845 16.8929C69.9267 17.1628 70.4731 17.2978 71.1238 17.2978C71.9325 17.2978 72.7028 17.1014 73.4335 16.7086C74.1643 16.3168 74.7985 15.7561 75.3373 15.0265C75.876 14.2968 76.2733 13.4541 76.53 12.4973C76.7868 11.5405 76.8394 10.6879 76.6913 9.94066C76.5421 9.19233 76.2096 8.61297 75.6939 8.2015ZM73.7528 12.4973C73.5191 13.3674 73.157 14.0323 72.6666 14.4921C72.175 14.9529 71.5858 15.1823 70.9 15.1823C70.2131 15.1823 69.7445 14.9497 69.4955 14.4833C69.2464 14.0181 69.2398 13.3433 69.4768 12.46C69.7138 11.5767 70.0814 10.8997 70.5818 10.4278C71.0821 9.95602 71.6768 9.71901 72.3637 9.71901C73.0374 9.71901 73.4961 9.9648 73.7386 10.4553C73.9811 10.9458 73.9855 11.6271 73.7528 12.4973Z" fill="#162C52"/>
<path fill-rule="evenodd" clip-rule="evenodd" d="M100.397 7.83093L100.399 7.82764H98.7156C98.6619 7.82764 98.6147 7.82873 98.5653 7.83093H97.693L97.2464 8.45198C97.2102 8.49916 97.174 8.54634 97.1356 8.60121L97.0873 8.67363L93.5388 13.6157L92.8025 7.82764H89.8958L91.3673 16.6233L88.1172 21.1264H91.0129L91.8007 20.0105C91.8237 19.9765 91.8435 19.9502 91.8687 19.9151L92.7882 18.6115L92.8146 18.5742L96.9282 12.7423L100.394 7.83422L100.399 7.83093H100.397Z" fill="#162C52"/>
<path fill-rule="evenodd" clip-rule="evenodd" d="M6.82782 5.55324L5.99609 8.6135L10.7549 5.53568L7.64308 17.1458L10.8032 17.1491L15.3996 0L6.82782 5.55324Z" fill="#4B89C8"/>
<path fill-rule="evenodd" clip-rule="evenodd" d="M1.70637 12.2687L0.398438 17.1493H6.87447C6.87447 17.1493 9.52436 7.22241 9.52546 7.22021C9.52216 7.22131 1.70637 12.2687 1.70637 12.2687Z" fill="#162C52"/>
</svg>
