<svg width="16" height="16" viewBox="0 0 16 16" fill="none" xmlns="http://www.w3.org/2000/svg">
<path d="M12.3577 13.0447C11.148 14.0929 9.60035 14.6689 7.99967 14.6667C4.31767 14.6667 1.33301 11.682 1.33301 8.00004C1.33301 4.31804 4.31767 1.33337 7.99967 1.33337C11.6817 1.33337 14.6663 4.31804 14.6663 8.00004C14.6663 9.42404 14.2197 10.744 13.4597 11.8267L11.333 8.00004H13.333C13.3329 6.77085 12.9082 5.57942 12.1308 4.6273C11.3534 3.67519 10.2709 3.02084 9.06656 2.77495C7.86221 2.52906 6.6099 2.70672 5.52146 3.27788C4.43302 3.84905 3.57529 4.77865 3.09336 5.90943C2.61142 7.04021 2.53488 8.30275 2.87667 9.48347C3.21846 10.6642 3.9576 11.6906 4.96906 12.3891C5.98052 13.0876 7.2022 13.4152 8.42744 13.3166C9.65267 13.218 10.8062 12.6993 11.693 11.848L12.3577 13.0447Z" fill="#9F9EB2"/>
</svg>
