<svg width="16" height="17" viewBox="0 0 16 17" fill="none" xmlns="http://www.w3.org/2000/svg">
<path opacity="0.4" d="M0 7.95752C0.0400198 9.82885 0.152075 13.0296 0.168083 13.3826C0.224911 14.1374 0.513854 14.9002 0.963677 15.438C1.58959 16.1928 2.36037 16.5298 3.4353 16.5298C4.92084 16.5378 6.55845 16.5378 8.14883 16.5378C9.74562 16.5378 11.2952 16.5378 12.6038 16.5298C13.6636 16.5298 14.4584 16.184 15.0763 15.438C15.5261 14.9002 15.815 14.1294 15.8558 13.3826C15.8719 13.0857 15.9519 9.61114 15.9999 7.95752H0Z" fill="#9F9EB2"/>
<path d="M7.40039 11.4001V12.4358C7.40039 12.7672 7.66932 13.0361 8.00069 13.0361C8.33205 13.0361 8.60099 12.7672 8.60099 12.4358V11.4001C8.60099 11.0687 8.33205 10.7998 8.00069 10.7998C7.66932 10.7998 7.40039 11.0687 7.40039 11.4001Z" fill="#9F9EB2"/>
<path fill-rule="evenodd" clip-rule="evenodd" d="M6.57205 10.7382C6.49201 11.0288 6.21268 11.2145 5.91013 11.1745C3.86831 10.8895 1.91695 10.1652 0.269734 9.07743C0.10085 8.96697 0 8.77808 0 8.57638V5.80221C0 4.12138 1.37028 2.7543 3.05511 2.7543H4.62949C4.77997 1.59212 5.76445 0.688477 6.96665 0.688477H9.03327C10.2347 0.688477 11.22 1.59212 11.3704 2.7543H12.9528C14.6328 2.7543 15.9999 4.12138 15.9999 5.80221V8.57638C15.9999 8.77808 15.8983 8.96617 15.731 9.07743C14.0806 10.17 12.1212 10.8975 10.0658 11.1817C10.0378 11.1857 10.0106 11.1873 9.98334 11.1873C9.71201 11.1873 9.46949 11.004 9.40145 10.735C9.23977 10.0979 8.66109 9.65211 7.99596 9.65211C7.32202 9.65211 6.74974 10.0883 6.57205 10.7382ZM9.0331 1.88907H6.96647C6.42781 1.88907 5.97798 2.25725 5.84352 2.7543H10.1553C10.0208 2.25725 9.57096 1.88907 9.0331 1.88907Z" fill="#9F9EB2"/>
</svg>
