<svg width="13" height="14" viewBox="0 0 13 14" fill="none" xmlns="http://www.w3.org/2000/svg">
<path d="M9.17133 1.49844L7.838 2.83177H1.33333V12.1651H10.6667V5.66044L12 4.3271V12.8318C12 13.0086 11.9298 13.1782 11.8047 13.3032C11.6797 13.4282 11.5101 13.4984 11.3333 13.4984H0.666667C0.489856 13.4984 0.320286 13.4282 0.195262 13.3032C0.0702379 13.1782 0 13.0086 0 12.8318V2.1651C0 1.98829 0.0702379 1.81872 0.195262 1.6937C0.320286 1.56868 0.489856 1.49844 0.666667 1.49844H9.17133ZM11.6567 0.898438L12.6 1.84244L6.472 7.97044L5.53067 7.97244L5.52933 7.02777L11.6567 0.898438Z" fill="#6F6E8B"/>
</svg>
