<svg width="12" height="12" viewBox="0 0 12 12" fill="none" xmlns="http://www.w3.org/2000/svg">
<path d="M7.00014 9.00007C7.13275 9.00007 7.25993 8.9474 7.35369 8.85363C7.44746 8.75986 7.50014 8.63268 7.50014 8.50007V7.50007C7.50014 7.36747 7.44746 7.24029 7.35369 7.14652C7.25993 7.05275 7.13275 7.00007 7.00014 7.00007C6.86753 7.00007 6.74036 7.05275 6.64659 7.14652C6.55282 7.24029 6.50014 7.36747 6.50014 7.50007V8.50007C6.50014 8.63268 6.55282 8.75986 6.64659 8.85363C6.74036 8.9474 6.86753 9.00007 7.00014 9.00007ZM5.00014 9.00007C5.13275 9.00007 5.25993 8.9474 5.35369 8.85363C5.44746 8.75986 5.50014 8.63268 5.50014 8.50007V7.50007C5.50014 7.36747 5.44746 7.24029 5.35369 7.14652C5.25993 7.05275 5.13275 7.00007 5.00014 7.00007C4.86753 7.00007 4.74036 7.05275 4.64659 7.14652C4.55282 7.24029 4.50014 7.36747 4.50014 7.50007V8.50007C4.50014 8.63268 4.55282 8.75986 4.64659 8.85363C4.74036 8.9474 4.86753 9.00007 5.00014 9.00007ZM9.50014 3.00007H8.81014L7.94514 1.27507C7.91871 1.2116 7.87947 1.15426 7.82988 1.10664C7.78028 1.05902 7.7214 1.02213 7.65691 0.998296C7.59242 0.974458 7.5237 0.964178 7.45505 0.968099C7.38641 0.972019 7.31931 0.990054 7.25795 1.02108C7.19659 1.0521 7.14229 1.09545 7.09844 1.14841C7.05459 1.20137 7.02214 1.2628 7.0031 1.32887C6.98407 1.39494 6.97887 1.46423 6.98782 1.5324C6.99677 1.60057 7.01969 1.66616 7.05514 1.72507L7.69014 3.00007H4.31014L4.94514 1.72507C4.99367 1.60853 4.99632 1.47794 4.95255 1.35952C4.90878 1.2411 4.82184 1.14362 4.70917 1.08666C4.59651 1.02969 4.46646 1.01746 4.34515 1.0524C4.22383 1.08735 4.12023 1.1669 4.05514 1.27507L3.19014 3.00007H2.50014C2.14673 3.00545 1.80658 3.13545 1.53967 3.36714C1.27275 3.59883 1.09623 3.91734 1.04123 4.26648C0.986224 4.61562 1.05628 4.97297 1.23903 5.2755C1.42179 5.57803 1.7055 5.80631 2.04014 5.92007L2.41014 9.65007C2.44745 10.0214 2.62181 10.3654 2.89918 10.615C3.17654 10.8647 3.53699 11.0019 3.91014 11.0001H8.10014C8.47329 11.0019 8.83374 10.8647 9.1111 10.615C9.38847 10.3654 9.56283 10.0214 9.60014 9.65007L9.97014 5.92007C10.3055 5.80597 10.5897 5.57686 10.7723 5.27332C10.9549 4.96977 11.0242 4.61139 10.9679 4.26165C10.9116 3.9119 10.7334 3.59337 10.4647 3.36246C10.1961 3.13156 9.85437 3.00318 9.50014 3.00007ZM8.59514 9.55007C8.5827 9.67384 8.52458 9.78852 8.43213 9.87173C8.33967 9.95494 8.21952 10.0007 8.09514 10.0001H3.90514C3.78076 10.0007 3.66061 9.95494 3.56815 9.87173C3.4757 9.78852 3.41758 9.67384 3.40514 9.55007L3.05014 6.00007H8.95014L8.59514 9.55007ZM9.50014 5.00007H2.50014C2.36753 5.00007 2.24036 4.9474 2.14659 4.85363C2.05282 4.75986 2.00014 4.63268 2.00014 4.50007C2.00014 4.36747 2.05282 4.24029 2.14659 4.14652C2.24036 4.05275 2.36753 4.00007 2.50014 4.00007H9.50014C9.63275 4.00007 9.75993 4.05275 9.85369 4.14652C9.94746 4.24029 10.0001 4.36747 10.0001 4.50007C10.0001 4.63268 9.94746 4.75986 9.85369 4.85363C9.75993 4.9474 9.63275 5.00007 9.50014 5.00007Z" fill="white"/>
</svg>
