<svg width="16" height="16" viewBox="0 0 16 16" fill="none" xmlns="http://www.w3.org/2000/svg">
<path fill-rule="evenodd" clip-rule="evenodd" d="M8.12051 10C6.97083 10 6.03888 9.1046 6.03888 8C6.03888 6.8954 6.97083 6 8.12051 6C9.2702 6 10.2021 6.8954 10.2021 8C10.2021 9.1046 9.2702 10 8.12051 10ZM8.12051 4C6.97083 4 6.03888 3.10457 6.03888 2C6.03888 0.89543 6.97083 -3.53114e-08 8.12051 -2.27478e-08C9.2702 -1.01842e-08 10.2021 0.89543 10.2021 2C10.2021 3.10457 9.2702 4 8.12051 4ZM8.12051 16C6.97083 16 6.03888 15.1046 6.03888 14C6.03888 12.8954 6.97083 12 8.12051 12C9.2702 12 10.2021 12.8954 10.2021 14C10.2021 15.1046 9.2702 16 8.12051 16Z" fill="#171717"/>
</svg>
