<svg width="71" height="30" viewBox="0 0 71 30" fill="none" xmlns="http://www.w3.org/2000/svg">
<path fill-rule="evenodd" clip-rule="evenodd" d="M70.5994 15.046C70.5994 10.0684 68.1883 6.14062 63.58 6.14062C58.9523 6.14062 56.1523 10.0684 56.1523 15.0072C56.1523 20.86 59.4579 23.8154 64.2022 23.8154C66.5161 23.8154 68.2661 23.2905 69.5883 22.5515V18.6626C68.266 19.3238 66.7494 19.7321 64.8244 19.7321C62.9383 19.7321 61.2661 19.071 61.0522 16.7765H70.5604C70.5606 16.5238 70.5994 15.5126 70.5994 15.046ZM60.994 13.1988C60.994 11.0016 62.3357 10.0876 63.5606 10.0876C64.7468 10.0876 66.0107 11.0016 66.0107 13.1988H60.994Z" fill="#635BFF"/>
<path fill-rule="evenodd" clip-rule="evenodd" d="M48.6463 6.14062C46.7408 6.14062 45.5157 7.035 44.8352 7.65731L44.5824 6.45178H40.3047V29.1238L45.1658 28.0933L45.1852 22.5906C45.8851 23.0962 46.9157 23.8156 48.6268 23.8156C52.1073 23.8156 55.2767 21.0156 55.2767 14.8518C55.2574 9.21282 52.0491 6.14062 48.6463 6.14062ZM47.4796 19.5377C46.3323 19.5377 45.6519 19.1294 45.1852 18.6238L45.1658 11.4099C45.6713 10.846 46.3713 10.4572 47.4796 10.4572C49.2491 10.4572 50.474 12.4405 50.474 14.9877C50.4742 17.5933 49.2685 19.5377 47.4796 19.5377Z" fill="#635BFF"/>
<path fill-rule="evenodd" clip-rule="evenodd" d="M33.6211 4.9971L38.5016 3.94715V0L33.6211 1.03054V4.9971Z" fill="#635BFF"/>
<path d="M38.5016 6.46875H33.6211V23.4824H38.5016V6.46875Z" fill="#635BFF"/>
<path fill-rule="evenodd" clip-rule="evenodd" d="M28.3861 7.91325L28.0749 6.47435H23.875V23.488H28.7361V11.9576C29.8832 10.4603 31.8277 10.7327 32.4304 10.9465V6.47435C31.8083 6.24112 29.5332 5.81335 28.3861 7.91325Z" fill="#635BFF"/>
<path fill-rule="evenodd" clip-rule="evenodd" d="M18.6623 2.25781L13.9179 3.26894L13.8984 18.8437C13.8984 21.7215 16.0567 23.841 18.9345 23.841C20.529 23.841 21.6955 23.5492 22.3373 23.1992V19.2521C21.7151 19.5049 18.6429 20.3992 18.6429 17.5216V10.6188H22.3373V6.47729H18.6429L18.6623 2.25781Z" fill="#635BFF"/>
<path fill-rule="evenodd" clip-rule="evenodd" d="M5.52101 11.4099C5.52101 10.6516 6.14319 10.36 7.17372 10.36C8.65144 10.36 10.5181 10.8072 11.996 11.6045V7.035C10.3821 6.39341 8.78761 6.14062 7.17372 6.14062C3.22657 6.14062 0.601562 8.2017 0.601562 11.6433C0.601562 17.0099 7.99044 16.1544 7.99044 18.4682C7.99044 19.3627 7.21268 19.6543 6.12377 19.6543C4.50989 19.6543 2.44882 18.9932 0.815517 18.0988V22.7265C2.62381 23.5043 4.45165 23.8349 6.12377 23.8349C10.1681 23.8349 12.9487 21.832 12.9487 18.3516C12.9293 12.5572 5.52101 13.5877 5.52101 11.4099Z" fill="#635BFF"/>
</svg>
