<svg width="20" height="20" viewBox="0 0 20 20" fill="none" xmlns="http://www.w3.org/2000/svg">
<path d="M9.99968 3.86676C11.8774 3.86676 13.1441 4.67787 13.8663 5.35564L16.6885 2.6001C14.9552 0.989004 12.6997 0.00012207 9.99968 0.00012207C6.08859 0.00012207 2.71084 2.24455 1.06641 5.5112L4.29972 8.02229C5.11082 5.61119 7.35525 3.86676 9.99968 3.86676Z" fill="#EA4335"/>
<path d="M19.5999 10.2242C19.5999 9.40202 19.5333 8.80203 19.3888 8.17981H10V11.8909H15.5111C15.4 12.8131 14.8 14.202 13.4666 15.1353L16.6222 17.5797C18.5111 15.8353 19.5999 13.2687 19.5999 10.2242Z" fill="#4285F4"/>
<path d="M4.31108 11.9746C4.09997 11.3523 3.97775 10.6857 3.97775 9.99679C3.97775 9.30791 4.09997 8.64125 4.29997 8.01903L1.06666 5.50793C0.388886 6.86348 0 8.38569 0 9.99679C0 11.6079 0.388886 13.1301 1.06666 14.4857L4.31108 11.9746Z" fill="#FBBC05"/>
<path d="M10.0003 19.9989C12.7003 19.9989 14.9669 19.11 16.6225 17.5766L13.4669 15.1322C12.6225 15.7211 11.4892 16.1322 10.0003 16.1322C7.35586 16.1322 5.11143 14.3878 4.31144 11.9767L1.07812 14.4878C2.72256 17.7544 6.0892 19.9989 10.0003 19.9989Z" fill="#34A853"/>
</svg>
