<svg width="16" height="15" viewBox="0 0 16 15" fill="none" xmlns="http://www.w3.org/2000/svg">
<path fill-rule="evenodd" clip-rule="evenodd" d="M15.9801 10.2844L16 10.2765V13.9406C16 14.3819 15.6423 14.7396 15.201 14.7396C14.9891 14.7396 14.7859 14.6554 14.636 14.5056L12.804 12.6735H2.39701C1.07318 12.6735 0 11.6004 0 10.2765V3.08549C0 1.76165 1.07318 0.688477 2.39701 0.688477H13.5831C14.9069 0.688477 15.9801 1.76165 15.9801 3.08549V10.2765C15.9801 10.2791 15.9801 10.2817 15.9801 10.2844ZM3.33021 6.72471C4.53641 8.53401 6.10892 9.47752 7.99004 9.47752C9.87116 9.47752 11.4437 8.53401 12.6499 6.72471C12.8946 6.35754 12.7954 5.86147 12.4283 5.61669C12.0611 5.37191 11.565 5.47113 11.3202 5.83829C10.3958 7.22501 9.30493 7.87951 7.99004 7.87951C6.67514 7.87951 5.58431 7.22501 4.65983 5.83829C4.41505 5.47113 3.91898 5.37191 3.55181 5.61669C3.18465 5.86147 3.08543 6.35754 3.33021 6.72471Z" fill="#9F9EB2"/>
</svg>
