<svg width="16" height="17" viewBox="0 0 16 17" fill="none" xmlns="http://www.w3.org/2000/svg">
<path fill-rule="evenodd" clip-rule="evenodd" d="M5.85054 13.4519L11.7081 5.87693C12.0265 5.46844 12.1397 4.99617 12.0336 4.5153C11.9416 4.07815 11.6728 3.66249 11.2695 3.34716L10.2862 2.56602C9.43018 1.8852 8.36902 1.95687 7.76063 2.73801L7.10271 3.59154C7.01782 3.69832 7.03904 3.85599 7.14515 3.94198C7.14515 3.94198 8.80763 5.27495 8.84301 5.30362C8.9562 5.41111 9.04109 5.55444 9.06231 5.72644C9.09768 6.06326 8.86423 6.37859 8.51758 6.42159C8.35487 6.44309 8.19924 6.39292 8.08605 6.29976L6.33867 4.90946C6.25378 4.84568 6.12644 4.85929 6.0557 4.94529L1.90303 10.3202C1.63421 10.657 1.54224 11.0941 1.63421 11.517L2.16479 13.8174C2.19308 13.9392 2.2992 14.0252 2.42654 14.0252L4.76109 13.9966C5.18555 13.9894 5.58171 13.7959 5.85054 13.4519ZM9.11934 12.7354H12.9261C13.2975 12.7354 13.5995 13.0414 13.5995 13.4176C13.5995 13.7946 13.2975 14.0999 12.9261 14.0999H9.11934C8.74794 14.0999 8.44586 13.7946 8.44586 13.4176C8.44586 13.0414 8.74794 12.7354 9.11934 12.7354Z" fill="#9F9EB2"/>
</svg>
