<svg width="16" height="17" viewBox="0 0 16 17" fill="none" xmlns="http://www.w3.org/2000/svg">
<path fill-rule="evenodd" clip-rule="evenodd" d="M13.5247 3.99535C13.7841 3.99535 14 4.21068 14 4.48468V4.73801C14 5.00534 13.7841 5.22734 13.5247 5.22734H2.4759C2.21591 5.22734 2 5.00534 2 4.73801V4.48468C2 4.21068 2.21591 3.99535 2.4759 3.99535H4.41971C4.81457 3.99535 5.1582 3.71469 5.24703 3.31869L5.34882 2.86403C5.50702 2.2447 6.02766 1.83337 6.62351 1.83337H9.37649C9.96585 1.83337 10.4923 2.2447 10.6447 2.83136L10.7536 3.31803C10.8418 3.71469 11.1854 3.99535 11.5809 3.99535H13.5247ZM12.5372 13.256C12.7402 11.3647 13.0955 6.87145 13.0955 6.82611C13.1084 6.68878 13.0637 6.55878 12.9749 6.45412C12.8796 6.35612 12.759 6.29812 12.626 6.29812H3.37902C3.24545 6.29812 3.11837 6.35612 3.03019 6.45412C2.94072 6.55878 2.89663 6.68878 2.90311 6.82611C2.90431 6.83444 2.91705 6.99272 2.93837 7.25733C3.03306 8.43283 3.29678 11.7068 3.46719 13.256C3.58779 14.3974 4.33666 15.1147 5.42138 15.1407C6.25842 15.16 7.12075 15.1667 8.00253 15.1667C8.83309 15.1667 9.67662 15.16 10.5396 15.1407C11.6619 15.1214 12.4101 14.4167 12.5372 13.256Z" fill="#9F9EB2"/>
</svg>
