<svg width="40" height="40" viewBox="0 0 40 40" fill="none" xmlns="http://www.w3.org/2000/svg">
<g clip-path="url(#clip0_861_15005)">
<path d="M35.1602 11.4625C35.9978 9.71352 35.879 7.59472 34.4414 6.15712L33.843 5.55864C32.4054 4.12104 30.2295 3.89232 28.5376 4.83984C27.3468 5.50672 24.8268 4.12008 24.6402 3.22192C24.2485 1.33568 22.4282 0 20.4084 0L19.38 0.05224C17.015 0.1724 15.1592 2.12496 15.1592 4.49296C15.24 5.52 13.48 6.28 12.4577 5.61184C10.7031 3.85728 7.8584 3.85728 6.10384 5.61184L5.61176 6.10392C4.1072 7.60856 3.9324 9.89104 4.96896 11.648C5.68 12.8533 4.98664 14.9866 3.81848 15.2738C1.69288 15.7965 0 17.36 0 19.6638V20.4076C0 22.4479 1.48624 23.9702 3.33504 24.6261C5.25328 25.3066 5.102 28.1204 4.90536 28.4576C3.90208 30.1778 4.13752 32.4218 5.61184 33.8961L6.10392 34.3882C7.5708 35.855 9.7616 36.026 11.5166 35.1096C12.7734 34.4533 15.1201 35.68 15.3147 36.6829C15.6919 38.6263 17.5777 40 19.6522 40H20.2924C22.3262 40 24.0482 38.6653 24.6302 36.8239C25.0108 35.6198 26.8534 34.4 28.6864 35.1711C30.4302 35.9047 32.578 35.7062 33.9407 34.3436L34.3882 33.8961C36.1428 32.1415 36.1428 29.2968 34.3882 27.5423C33.6001 26.8267 34.6134 24.8534 35.5071 24.8408C37.9886 24.8408 40.0001 22.8292 40.0001 20.3478V19.5786C40.0001 17.5125 38.6285 15.6696 36.6981 15.2454C35.4 14.96 34.74 12.34 35.1602 11.4625Z" fill="#6062F9"/>
<path d="M16.5007 26.1063L11.287 20.8926C10.6621 20.2677 10.6621 19.2547 11.287 18.6299C11.9119 18.005 12.9249 18.005 13.5497 18.6299L17.6321 22.7122L26.4508 13.8935C27.0757 13.2686 28.0887 13.2686 28.7135 13.8935C29.3383 14.5183 29.3384 15.5314 28.7135 16.1562L18.7635 26.1063C18.1069 26.6665 16.9337 26.5865 16.5007 26.1063Z" fill="white"/>
</g>
<defs>
<clipPath id="clip0_861_15005">
<rect width="40" height="40" fill="white"/>
</clipPath>
</defs>
</svg>
