<svg width="14" height="15" viewBox="0 0 14 15" fill="none" xmlns="http://www.w3.org/2000/svg">
<g opacity="0.6">
<path fill-rule="evenodd" clip-rule="evenodd" d="M7 14.5C3.136 14.5 0 11.371 0 7.5C0 3.636 3.136 0.5 7 0.5C10.871 0.5 14 3.636 14 7.5C14 11.371 10.871 14.5 7 14.5ZM9.23347 10.0991C9.31747 10.1481 9.40847 10.1761 9.50647 10.1761C9.68147 10.1761 9.85647 10.0851 9.95447 9.91712C10.1015 9.67212 10.0245 9.35012 9.77247 9.19613L7.28047 7.71212V4.47813C7.28047 4.18412 7.04247 3.95312 6.75547 3.95312C6.46847 3.95312 6.23047 4.18412 6.23047 4.47813V8.01312C6.23047 8.19513 6.32847 8.36312 6.48947 8.46112L9.23347 10.0991Z" fill="#3F3D65"/>
</g>
</svg>
