<svg width="90" height="24" viewBox="0 0 90 24" fill="none" xmlns="http://www.w3.org/2000/svg">
<ellipse cx="12" cy="12" rx="12" ry="12" fill="#2775CA"/>
<path d="M9.75 20.3851C9.75 20.6663 9.525 20.8257 9.2625 20.7413C5.625 19.5788 3 16.1851 3 12.1632C3 8.15071 5.625 4.74758 9.2625 3.58508C9.53438 3.50071 9.75 3.66008 9.75 3.94133V4.64446C9.75 4.83196 9.60938 5.04758 9.43125 5.11321C6.55312 6.17258 4.5 8.93821 4.5 12.1632C4.5 15.3976 6.55312 18.1538 9.43125 19.2038C9.60938 19.2695 9.75 19.4851 9.75 19.6726V20.3851Z" fill="white"/>
<path d="M12.7521 17.748C12.7521 17.9543 12.5834 18.123 12.3771 18.123H11.6271C11.4209 18.123 11.2521 17.9543 11.2521 17.748V16.5668C9.61149 16.3418 8.81462 15.4324 8.59899 14.1762C8.56149 13.9605 8.73024 13.773 8.94587 13.773H9.79899C9.97712 13.773 10.1271 13.9043 10.1646 14.073C10.324 14.8137 10.7552 15.3855 12.0677 15.3855C13.0334 15.3855 13.7271 14.8418 13.7271 14.0355C13.7271 13.2293 13.324 12.9199 11.899 12.6855C9.79899 12.4043 8.80524 11.7668 8.80524 10.1262C8.80524 8.86055 9.77087 7.8668 11.2521 7.66055V6.49805C11.2521 6.2918 11.4209 6.12305 11.6271 6.12305H12.3771C12.5834 6.12305 12.7521 6.2918 12.7521 6.49805V7.68867C13.9615 7.9043 14.7302 8.58867 14.9834 9.73242C15.0302 9.94805 14.8615 10.1449 14.6365 10.1449H13.849C13.6802 10.1449 13.5396 10.0324 13.4927 9.87305C13.2771 9.15117 12.7615 8.83242 11.8615 8.83242C10.8677 8.83242 10.3521 9.31055 10.3521 9.98555C10.3521 10.698 10.6427 11.0543 12.1709 11.2699C14.2334 11.5512 15.3021 12.1418 15.3021 13.8949C15.3021 15.2262 14.3084 16.3043 12.7615 16.548V17.748H12.7521Z" fill="white"/>
<path d="M14.7375 20.6991C14.4656 20.7835 14.25 20.6241 14.25 20.3429V19.6398C14.25 19.4335 14.3719 19.2366 14.5687 19.171C17.4375 18.121 19.5 15.3554 19.5 12.1304C19.5 8.89602 17.4469 6.13977 14.5687 5.08977C14.3906 5.02414 14.25 4.80852 14.25 4.62102V3.91789C14.25 3.63664 14.475 3.47727 14.7375 3.56164C18.375 4.70539 21 8.10852 21 12.121C21 16.1429 18.375 19.5366 14.7375 20.6991Z" fill="white"/>
<circle cx="45" cy="12" r="12" fill="#F7931A"/>
<path d="M50.292 10.2927C50.5309 8.69597 49.3152 7.83759 47.6528 7.26497L48.192 5.10197L46.8754 4.77384L46.3504 6.87984C46.0043 6.79359 45.6488 6.71222 45.2955 6.63159L45.8243 4.51172L44.5084 4.18359L43.9688 6.34584C43.6823 6.28059 43.401 6.21609 43.128 6.14822L43.1295 6.14147L41.3138 5.68809L40.9635 7.09434C40.9635 7.09434 41.9404 7.31822 41.9198 7.33209C42.453 7.46522 42.5494 7.81809 42.5333 8.09784L41.919 10.562C41.9558 10.5713 42.0034 10.5848 42.0559 10.6058C42.012 10.595 41.9652 10.583 41.9168 10.5713L41.0558 14.0232C40.9905 14.1852 40.8252 14.4282 40.4524 14.336C40.4655 14.3551 39.4954 14.0971 39.4954 14.0971L38.8418 15.6042L40.5552 16.0313C40.8739 16.1112 41.1863 16.1948 41.4938 16.2736L40.9489 18.4613L42.264 18.7895L42.8037 16.625C43.1629 16.7225 43.5117 16.8125 43.8529 16.8972L43.3152 19.0516L44.6318 19.3797L45.1767 17.1961C47.4218 17.621 49.11 17.4496 49.8207 15.419C50.3933 13.784 49.7922 12.8408 48.6109 12.2258C49.4712 12.0275 50.1192 11.4616 50.292 10.2927ZM47.2838 14.5111C46.8769 16.1461 44.124 15.2622 43.2315 15.0406L43.9545 12.1422C44.847 12.365 47.709 12.806 47.2838 14.5111ZM47.691 10.2691C47.3198 11.7563 45.0285 11.0007 44.2853 10.8155L44.9408 8.18672C45.684 8.37197 48.0777 8.71772 47.691 10.2691Z" fill="white"/>
<circle cx="78" cy="12" r="12" fill="#DFDFE5"/>
<path fill-rule="evenodd" clip-rule="evenodd" d="M77.8303 3.17413C77.7903 3.26987 76.5814 5.29976 75.1439 7.685C73.7064 10.0702 72.5183 12.053 72.5036 12.0913C72.4845 12.1411 73.2655 12.6269 75.242 13.7948L78.0071 15.4286L80.7715 13.7939C82.7575 12.6195 83.5284 12.1394 83.5091 12.0891C83.4092 11.8287 78.0336 3 77.975 3C77.9354 3 77.8703 3.07833 77.8303 3.17413ZM72.5102 13.2663C72.6167 13.4485 77.9843 21.0007 78.0068 21C78.0438 20.9989 83.5317 13.2439 83.5105 13.2227C83.4904 13.2027 78.3609 16.2238 78.1469 16.3816L78.0157 16.4784L75.3599 14.9104C73.8991 14.048 72.6501 13.3076 72.5841 13.2651C72.4749 13.1947 72.4683 13.1948 72.5102 13.2663Z" fill="black"/>
</svg>
