<svg width="81" height="19" viewBox="0 0 81 19" fill="none" xmlns="http://www.w3.org/2000/svg">
<path d="M80.7988 7.93201C80.7988 3.27525 77.5546 0 73.0065 0C67.2166 0 63.3359 4.2066 63.3359 10.2138C63.3359 14.9016 66.6112 18.1458 71.2369 18.1458C75.4435 18.1458 78.5791 16.1124 79.8674 12.8682H75.1951C74.5742 13.8771 73.2548 14.5136 71.6405 14.5136C69.1569 14.5136 67.6046 12.8682 67.4649 10.5398H80.5349C80.7056 9.65501 80.7988 8.89441 80.7988 7.93201ZM67.8219 7.38872C68.2411 5.24661 70.3211 3.53914 72.8357 3.53914C75.0089 3.53914 76.6543 5.12243 76.6543 7.38872H67.8219Z" fill="#2E4369"/>
<path d="M50.7812 17.7276L51.6195 13.2571C54.1807 13.7693 54.5687 12.3257 55.2362 8.84868L55.5622 7.12568C56.4935 2.26713 58.3718 -0.154389 63.7426 0.497557L62.9043 4.96805C60.3431 4.4558 59.893 6.39612 59.3186 9.40749L58.9927 11.1305C58.0613 16.0511 56.121 18.3795 50.7812 17.7276Z" fill="#2E4369"/>
<path d="M44.5078 17.7421L47.6744 0.418945H51.85L48.6989 17.7421H44.5078Z" fill="#2E4369"/>
<path d="M20.5879 0.418945H24.6393L25.9587 12.9456L31.2674 0.418945H35.2877L36.7003 13.0698L41.8227 0.418945H45.8586L38.5164 17.7421H33.9217L32.4316 5.82079L27.3557 17.7421H22.9163L20.5879 0.418945Z" fill="#2E4369"/>
<path d="M5.66146 5.11211L0.798828 9.79259H9.0653L9.92803 7.75279H5.73989L8.35944 5.11211L6.8379 2.47144H13.9436L7.38691 18.0783H9.8496L17.269 0.431641H2.93211L5.66146 5.11211Z" fill="#00B9FF"/>
</svg>
