<svg width="37" height="37" viewBox="0 0 37 37" fill="none" xmlns="http://www.w3.org/2000/svg">
<rect width="37" height="37" rx="18.5" fill="#FFCFD7"/>
<g clip-path="url(#clip0_2_1787)">
<path d="M18.9998 17.0153C20.1484 17.0153 21.0774 17.9684 21.0774 19.1334C21.0774 20.2984 20.1484 21.2516 18.9998 21.2516C17.8513 21.2516 16.9223 20.2984 16.9223 19.1334C16.9223 17.9684 17.8513 17.0153 18.9998 17.0153ZM18.9998 20.2955C19.6228 20.2955 20.1349 19.7772 20.1349 19.1334C20.1349 18.4897 19.6228 17.9713 18.9998 17.9713C18.3769 17.9713 17.8648 18.4897 17.8648 19.1334C17.8648 19.7772 18.3769 20.2955 18.9998 20.2955Z" fill="#3F3D65" stroke="#3F3D65" stroke-width="0.3"/>
<path d="M13.9566 17.291L13.9564 17.2912C13.8403 17.499 13.8926 17.7618 14.0802 17.9074L14.0804 17.9075L14.9228 18.5592C14.8974 18.7476 14.8845 18.9401 14.8845 19.1344C14.8845 19.3287 14.8974 19.5212 14.9233 19.7098L14.0815 20.3603C14.0814 20.3604 14.0814 20.3604 14.0813 20.3605C13.8919 20.506 13.8412 20.7706 13.9572 20.9772M13.9566 17.291L14.1728 20.4793C14.0437 20.5784 14.0077 20.7608 14.088 20.9038L15.0467 22.6121M13.9566 17.291L14.9152 15.5827L15.046 15.6561M13.9566 17.291L14.9152 15.5827M13.9572 20.9772L14.088 20.9038L13.9572 20.9772L13.9572 20.9772ZM13.9572 20.9772L14.9156 22.6851L15.0467 22.6121M15.0467 22.6121L14.9159 22.6855L14.9157 22.6853M15.0467 22.6121C15.127 22.7565 15.3011 22.8168 15.4508 22.7512M14.9157 22.6853L14.0874 17.3644L15.046 15.6561M14.9157 22.6853C15.0327 22.8953 15.2886 22.9859 15.5107 22.8887L15.5105 22.8888L15.4508 22.7512M14.9157 22.6853L17.5739 24.1128L17.7228 24.0948M15.4508 22.7512L16.5026 22.2953M15.4508 22.7512L15.511 22.8886L16.4787 22.4691M16.5026 22.2953C16.8303 22.5675 17.1921 22.7814 17.5821 22.9323M16.5026 22.2953L16.5623 22.4329L16.4787 22.4691M16.5026 22.2953L16.4068 22.4106C16.4306 22.4304 16.4546 22.4499 16.4787 22.4691M17.5821 22.9323L17.7228 24.0948M17.5821 22.9323L17.528 23.0722C17.4998 23.0613 17.4717 23.0501 17.4438 23.0385M17.5821 22.9323L17.4332 22.9503L17.4438 23.0385M17.7228 24.0948C17.7427 24.2595 17.8796 24.3828 18.0415 24.3828H19.9601C20.1226 24.3828 20.2595 24.2595 20.2788 24.0948M17.7228 24.0948L17.5739 24.1128L17.4438 23.0385M20.2788 24.0948L20.4182 22.9336M20.2788 24.0948L20.4278 24.1122L20.5565 23.0398M20.2788 24.0948L20.4277 24.1127L20.4277 24.1125L21.5217 22.4705M20.4182 22.9336C20.8095 22.7821 21.1712 22.5688 21.4976 22.2966M20.4182 22.9336L20.5671 22.9515L20.5565 23.0398M20.4182 22.9336L20.4724 23.0735C20.5006 23.0626 20.5286 23.0513 20.5565 23.0398M21.4976 22.2966L22.5495 22.7525C22.6992 22.8168 22.8733 22.7571 22.9536 22.6135M21.4976 22.2966L21.5937 22.4118C21.5699 22.4316 21.5459 22.4512 21.5217 22.4705M21.4976 22.2966L21.438 22.4342L21.5217 22.4705M22.9536 22.6135L23.9123 20.9051M22.9536 22.6135L23.0844 22.6869M22.9536 22.6135L23.0845 22.6866M23.9123 20.9051C23.9926 20.7621 23.9566 20.5804 23.8275 20.4806M23.9123 20.9051L24.0431 20.9785C24.1593 20.7716 24.108 20.5078 23.9191 20.3619M23.9123 20.9051L24.0431 20.9786L23.0845 22.6866M23.8275 20.4806L22.9163 19.7761M23.8275 20.4806L23.9192 20.362L23.9191 20.3619M23.8275 20.4806L23.9191 20.3619M22.9163 19.7761C22.9491 19.5661 22.9658 19.3516 22.9658 19.1351C22.9658 18.9186 22.9491 18.7034 22.9163 18.4948M22.9163 19.7761L23.0081 19.6574L23.0774 19.711M22.9163 19.7761L23.0646 19.7992C23.0691 19.7699 23.0734 19.7404 23.0774 19.711M22.9163 18.4948L23.8275 17.7895M22.9163 18.4948L23.0645 18.4715C23.0691 18.5008 23.0734 18.5303 23.0774 18.5598M22.9163 18.4948L23.0082 18.6134L23.0774 18.5598M23.8275 17.7895C23.9566 17.6898 23.9926 17.5081 23.9123 17.3651M23.8275 17.7895L23.9191 17.9083M23.8275 17.7895L23.9193 17.9082L23.9191 17.9083M23.9123 17.3651L22.9536 15.6567C22.8727 15.5131 22.6979 15.4534 22.5495 15.5176L21.4976 15.9736M23.9123 17.3651L24.0431 17.2916L23.0844 15.5833L23.0843 15.5831C22.9665 15.374 22.7103 15.2845 22.4898 15.38L22.4898 15.38L21.5217 15.7997M23.9123 17.3651L24.0431 17.2917C24.1593 17.4986 24.108 17.7624 23.9191 17.9083M21.4976 15.9736C21.1712 15.7013 20.8095 15.4881 20.4182 15.3366M21.4976 15.9736L21.438 15.836L21.5217 15.7997M21.4976 15.9736L21.5937 15.8584C21.5699 15.8385 21.5459 15.819 21.5217 15.7997M20.4182 15.3366L20.2788 14.1741M20.4182 15.3366L20.4724 15.1967C20.5006 15.2076 20.5286 15.2189 20.5565 15.2304M20.4182 15.3366L20.5671 15.3187L20.5565 15.2304M20.2788 14.1741C20.2595 14.0094 20.122 13.8861 19.9601 13.8861H18.0415C17.8789 13.8861 17.7421 14.0094 17.7228 14.1734M20.2788 14.1741L20.4277 14.1562L20.4277 14.1564L23.0844 22.6869M20.2788 14.1741L20.4278 14.1566L20.5565 15.2304M17.7228 14.1734L17.5821 15.3359C17.1914 15.4875 16.8297 15.7007 16.5026 15.9729L15.4502 15.517C15.3011 15.4514 15.127 15.5117 15.046 15.6561M17.7228 14.1734L17.5739 14.1554L17.5739 14.1556C17.5738 14.1557 17.5738 14.1558 17.5738 14.1559L17.4438 15.2298C17.0981 15.3729 16.7751 15.5633 16.4786 15.7991L15.5106 15.3797C15.5104 15.3796 15.5102 15.3795 15.5101 15.3795C15.2881 15.2821 15.0326 15.3734 14.9152 15.5827M17.7228 14.1734L14.9152 15.5827M15.046 15.6561L14.9152 15.5827M20.5565 15.2304C20.9027 15.3735 21.2257 15.5639 21.5217 15.7997M23.9191 17.9083L23.0774 18.5598M23.0774 18.5598C23.1029 18.7484 23.1158 18.9413 23.1158 19.1351C23.1158 19.3291 23.1029 19.5216 23.0774 19.711M23.0774 19.711L23.9191 20.3619M23.0845 22.6866C23.0845 22.6867 23.0845 22.6868 23.0844 22.6869M23.0845 22.6866L23.0844 22.6869M23.0844 22.6869C22.967 22.8966 22.7113 22.9853 22.4903 22.8904L22.4898 22.8902L21.5217 22.4705M23.0844 22.6869L21.5217 22.4705M21.5217 22.4705C21.2257 22.7062 20.9027 22.8967 20.5565 23.0398M17.4438 23.0385C17.0985 22.8957 16.7755 22.7048 16.4787 22.4691M19.8052 22.6495C19.82 22.5223 19.9067 22.416 20.0263 22.3766C20.4715 22.231 20.8744 21.9935 21.2239 21.6701L16.4345 21.6117C16.5502 21.5625 16.6832 21.5848 16.7751 21.6701M19.8052 22.6495L19.6761 23.7268H18.3255L18.1944 22.6495C18.179 22.5223 18.0929 22.416 17.9734 22.3773C17.53 22.2323 17.1272 21.9948 16.7751 21.6701M19.8052 22.6495L19.6563 22.6317L19.6563 22.6319C19.6563 22.632 19.6562 22.6321 19.6562 22.6322L19.543 23.5768H18.4583L18.3433 22.6315C18.3433 22.6315 18.3433 22.6314 18.3433 22.6314C18.3211 22.448 18.1964 22.2919 18.0198 22.2346C17.5975 22.0965 17.2134 21.8702 16.8768 21.5598M19.8052 22.6495L16.8768 21.5598M16.7751 21.6701L16.8768 21.5598M16.7751 21.6701L16.8771 21.5601C16.877 21.56 16.8769 21.5599 16.8768 21.5598M16.8768 21.5598C16.7408 21.4339 16.5448 21.4017 16.3758 21.4736L16.3749 21.474L16.3749 21.474L15.5257 21.8421L14.9793 20.8685L15.7218 20.295C15.7218 20.295 15.7218 20.2949 15.7218 20.2949C15.8682 20.1818 15.9358 19.9933 15.8969 19.8129C15.851 19.5958 15.827 19.3675 15.827 19.1344C15.827 18.9013 15.851 18.6738 15.8975 18.4568C15.8975 18.4568 15.8975 18.4567 15.8975 18.4567L15.7509 18.4252L16.8768 21.5598ZM19.9798 16.0336C19.8028 15.9761 19.6785 15.8191 19.6563 15.6361L19.6563 15.6359L19.543 14.6921H18.4584L18.344 15.6374L18.344 15.6374C18.3217 15.8208 18.1972 15.9768 18.0206 16.0342C17.5982 16.1723 17.2141 16.3986 16.8774 16.7091L16.8774 16.7091C16.7412 16.8347 16.5452 16.8674 16.3762 16.7951L16.3755 16.7948L15.5263 16.4268L14.9794 17.401L15.7224 17.9752L20.0263 15.8909M19.9798 16.0336C19.9799 16.0336 19.98 16.0336 19.98 16.0336L20.0263 15.8909M19.9798 16.0336C19.9798 16.0336 19.9797 16.0335 19.9796 16.0335L20.0263 15.8909M19.9798 16.0336C20.4042 16.1724 20.7882 16.3987 21.1221 16.7076M20.0263 15.8909C20.4715 16.0366 20.8744 16.2741 21.2239 16.5975M21.1221 16.7076C21.122 16.7075 21.1219 16.7075 21.1218 16.7074L21.2239 16.5975M21.1221 16.7076C21.2585 16.8342 21.4545 16.8666 21.6238 16.7946L21.6248 16.7942L22.474 16.4262M21.1221 16.7076L21.2239 16.5975M21.2239 16.5975L22.474 16.4262M22.474 16.4262L22.4077 16.3081L22.5385 16.2347M22.474 16.4262L21.5651 16.6565L22.5385 16.2347M22.474 16.4262L22.5982 16.3723L22.5385 16.2347M22.474 16.4262L23.021 17.4005M22.5385 16.2347L23.2151 17.4399M23.2151 17.4399L23.1233 17.3212L23.021 17.4005M23.2151 17.4399L22.3708 18.0933M23.2151 17.4399L23.0843 17.5133L23.021 17.4005M23.021 17.4005L22.2793 17.9745M22.3708 18.0933L22.2793 17.9745M22.3708 18.0933L22.279 17.9747M22.3708 18.0933C22.2712 18.17 22.2243 18.2993 22.2507 18.4239C22.2995 18.6522 22.3239 18.891 22.3239 19.1338L22.279 17.9747M22.2793 17.9745C22.2792 17.9745 22.2791 17.9746 22.279 17.9747M22.2793 17.9745L22.279 17.9747M22.279 17.9747C22.1331 18.0873 22.0659 18.2751 22.1039 18.455L22.104 18.4553C22.1505 18.6728 22.1739 18.901 22.1739 19.1338C22.1739 19.3665 22.1505 19.5948 22.104 19.813L22.1039 19.8133C22.0659 19.9932 22.1331 20.181 22.2791 20.2936L22.3708 20.1749L22.279 17.9747Z" fill="#3F3D65" stroke="#3F3D65" stroke-width="0.3"/>
<path d="M24.7137 15.1351C23.4206 13.2031 21.2842 12.0513 18.9997 12.0513C15.2465 12.0513 12.1766 15.1231 12.084 18.9403L12.561 18.4533C12.665 18.3471 12.7917 18.3003 12.9179 18.3083C13.04 18.3161 13.1491 18.3744 13.228 18.4549C13.307 18.5355 13.3629 18.6457 13.3704 18.7677C13.378 18.8933 13.3335 19.021 13.2296 19.127L11.9455 20.4382C11.9454 20.4382 11.9454 20.4383 11.9453 20.4383C11.7631 20.6252 11.4612 20.6284 11.2759 20.4383C11.2758 20.4383 11.2758 20.4382 11.2757 20.4382L9.99156 19.127C9.8877 19.021 9.84317 18.8933 9.85084 18.7677C9.85829 18.6457 9.9142 18.5355 9.99317 18.4549C10.0721 18.3744 10.1811 18.3161 10.3033 18.3083C10.4295 18.3003 10.5562 18.3471 10.6602 18.4533L11.1411 18.9444C11.2319 14.6031 14.7192 11.0953 18.9997 11.0953C21.5983 11.0953 24.0258 12.4056 25.4937 14.5975C25.5764 14.721 25.5971 14.8547 25.5667 14.9769C25.5371 15.0956 25.4618 15.1936 25.3691 15.2581C25.2766 15.3225 25.1586 15.3592 25.0371 15.3439C24.9118 15.3281 24.7962 15.2585 24.7137 15.1351Z" fill="#3F3D65" stroke="#3F3D65" stroke-width="0.3"/>
<path d="M12.5045 23.6437C12.4218 23.5202 12.4012 23.3865 12.4318 23.2644C12.4616 23.1457 12.5371 23.0478 12.6298 22.9835C12.7224 22.9193 12.8405 22.8828 12.9619 22.8983C13.0871 22.9144 13.2026 22.9842 13.2846 23.1077C14.5758 25.0408 16.7127 26.194 18.9992 26.194C22.7524 26.194 25.8223 23.1222 25.9149 19.3049L25.4378 19.792C25.3339 19.8981 25.2072 19.945 25.081 19.937C24.9588 19.9292 24.8498 19.8709 24.7709 19.7904C24.6919 19.7097 24.636 19.5996 24.6285 19.4775C24.6209 19.352 24.6654 19.2243 24.7692 19.1183L26.0537 17.8068C26.2416 17.615 26.5428 17.622 26.7232 17.8071L28.0073 19.1183C28.1112 19.2243 28.1557 19.352 28.148 19.4776C28.1406 19.5996 28.0847 19.7098 28.0057 19.7904C27.9269 19.871 27.8178 19.9293 27.6957 19.9372C27.5696 19.9454 27.4428 19.8988 27.3388 19.7928L27.3387 19.7926L26.8577 19.3011C26.7669 23.6423 23.2796 27.15 18.9992 27.15C16.398 27.15 13.9704 25.8384 12.5045 23.6437ZM12.5045 23.6437C12.5045 23.6438 12.5045 23.6438 12.5045 23.6438L12.6292 23.5603M12.5045 23.6437C12.5045 23.6437 12.5045 23.6437 12.5044 23.6437L12.6292 23.5603M12.6292 23.5603C12.3889 23.2015 12.9222 22.8328 13.1599 23.191C14.4784 25.165 16.6617 26.344 18.9992 26.344C22.8889 26.344 26.0552 23.1184 26.067 19.1496L12.6292 23.5603Z" fill="#3F3D65" stroke="#3F3D65" stroke-width="0.3"/>
</g>
<defs>
<clipPath id="clip0_2_1787">
<rect x="9" y="9" width="19" height="19" rx="4" fill="white"/>
</clipPath>
</defs>
</svg>
