<svg width="37" height="37" viewBox="0 0 37 37" fill="none" xmlns="http://www.w3.org/2000/svg">
<rect width="37" height="37" rx="18.5" fill="#FFCFD7"/>
<path fill-rule="evenodd" clip-rule="evenodd" d="M12.125 14.25C12.125 13.0764 13.0764 12.125 14.25 12.125H22.75C23.9236 12.125 24.875 13.0764 24.875 14.25V22.75C24.875 23.9236 23.9236 24.875 22.75 24.875H14.25C13.0764 24.875 12.125 23.9236 12.125 22.75V14.25ZM14.25 13.5417H22.75C23.1412 13.5417 23.4583 13.8588 23.4583 14.25V22.75C23.4583 23.1412 23.1412 23.4583 22.75 23.4583H14.25C13.8588 23.4583 13.5417 23.1412 13.5417 22.75V14.25C13.5417 13.8588 13.8588 13.5417 14.25 13.5417ZM14.9583 15.6667C14.9583 15.2755 15.2755 14.9583 15.6667 14.9583H21.3333C21.7245 14.9583 22.0417 15.2755 22.0417 15.6667C22.0417 16.0579 21.7245 16.375 21.3333 16.375H15.6667C15.2755 16.375 14.9583 16.0579 14.9583 15.6667ZM18.5 21.3333C19.2824 21.3333 19.9167 20.6991 19.9167 19.9167C19.9167 19.1342 19.2824 18.5 18.5 18.5C17.7176 18.5 17.0833 19.1342 17.0833 19.9167C17.0833 20.6991 17.7176 21.3333 18.5 21.3333Z" fill="#3F3D65"/>
</svg>
