<svg width="37" height="37" viewBox="0 0 37 37" fill="none" xmlns="http://www.w3.org/2000/svg">
<rect width="37" height="37" rx="18.5" fill="#D7D8FE"/>
<path fill-rule="evenodd" clip-rule="evenodd" d="M15.6673 12.125C16.0585 12.125 16.3757 11.8079 16.3757 11.4167C16.3757 11.0255 16.0585 10.7084 15.6673 10.7084C15.2761 10.7084 14.959 11.0255 14.959 11.4167C14.959 11.8079 15.2761 12.125 15.6673 12.125ZM18.5007 12.125C18.8919 12.125 19.209 11.8079 19.209 11.4167C19.209 11.0255 18.8919 10.7084 18.5007 10.7084C18.1094 10.7084 17.7923 11.0255 17.7923 11.4167C17.7923 11.8079 18.1094 12.125 18.5007 12.125ZM22.0423 11.4167C22.0423 11.8079 21.7252 12.125 21.334 12.125C20.9428 12.125 20.6257 11.8079 20.6257 11.4167C20.6257 11.0255 20.9428 10.7084 21.334 10.7084C21.7252 10.7084 22.0423 11.0255 22.0423 11.4167ZM15.6673 26.2917C16.0585 26.2917 16.3757 25.9746 16.3757 25.5834C16.3757 25.1922 16.0585 24.875 15.6673 24.875C15.2761 24.875 14.959 25.1922 14.959 25.5834C14.959 25.9746 15.2761 26.2917 15.6673 26.2917ZM18.5007 26.2917C18.8919 26.2917 19.209 25.9746 19.209 25.5834C19.209 25.1922 18.8919 24.875 18.5007 24.875C18.1094 24.875 17.7923 25.1922 17.7923 25.5834C17.7923 25.9746 18.1094 26.2917 18.5007 26.2917ZM22.0423 25.5834C22.0423 25.9746 21.7252 26.2917 21.334 26.2917C20.9428 26.2917 20.6257 25.9746 20.6257 25.5834C20.6257 25.1922 20.9428 24.875 21.334 24.875C21.7252 24.875 22.0423 25.1922 22.0423 25.5834ZM25.584 20.625C25.9752 20.625 26.2923 20.9422 26.2923 21.3334C26.2923 21.7246 25.9752 22.0417 25.584 22.0417C25.1928 22.0417 24.8757 21.7246 24.8757 21.3334C24.8757 20.9422 25.1928 20.625 25.584 20.625ZM25.584 17.7917C25.9752 17.7917 26.2923 18.1088 26.2923 18.5C26.2923 18.8913 25.9752 19.2084 25.584 19.2084C25.1928 19.2084 24.8757 18.8913 24.8757 18.5C24.8757 18.1088 25.1928 17.7917 25.584 17.7917ZM26.2923 15.6667C26.2923 15.2755 25.9752 14.9584 25.584 14.9584C25.1928 14.9584 24.8757 15.2755 24.8757 15.6667C24.8757 16.0579 25.1928 16.375 25.584 16.375C25.9752 16.375 26.2923 16.0579 26.2923 15.6667ZM12.1257 21.3334C12.1257 20.9422 11.8085 20.625 11.4173 20.625C11.0261 20.625 10.709 20.9422 10.709 21.3334C10.709 21.7246 11.0261 22.0417 11.4173 22.0417C11.8085 22.0417 12.1257 21.7246 12.1257 21.3334ZM12.1257 18.5C12.1257 18.1088 11.8085 17.7917 11.4173 17.7917C11.0261 17.7917 10.709 18.1088 10.709 18.5C10.709 18.8913 11.0261 19.2084 11.4173 19.2084C11.8085 19.2084 12.1257 18.8913 12.1257 18.5ZM11.4173 14.9584C11.8085 14.9584 12.1257 15.2755 12.1257 15.6667C12.1257 16.0579 11.8085 16.375 11.4173 16.375C11.0261 16.375 10.709 16.0579 10.709 15.6667C10.709 15.2755 11.0261 14.9584 11.4173 14.9584ZM14.959 14.25H22.0423C22.4335 14.25 22.7507 14.5672 22.7507 14.9584V22.0417C22.7507 22.4329 22.4335 22.75 22.0423 22.75H14.959C14.5678 22.75 14.2507 22.4329 14.2507 22.0417V14.9584C14.2507 14.5672 14.5678 14.25 14.959 14.25ZM12.834 14.9584C12.834 13.7848 13.7854 12.8334 14.959 12.8334H22.0423C23.216 12.8334 24.1673 13.7848 24.1673 14.9584V22.0417C24.1673 23.2153 23.216 24.1667 22.0423 24.1667H14.959C13.7854 24.1667 12.834 23.2153 12.834 22.0417V14.9584ZM17.084 17.0834H19.9173V19.9167H17.084V17.0834ZM15.6673 21.3334V15.6667H21.334V21.3334H15.6673Z" fill="#3F3D65"/>
</svg>
