<svg width="37" height="37" viewBox="0 0 37 37" fill="none" xmlns="http://www.w3.org/2000/svg">
<rect width="37" height="37" rx="18.5" fill="#FFE9D8"/>
<path fill-rule="evenodd" clip-rule="evenodd" d="M13.5417 12.8333C13.5417 13.2245 13.2245 13.5417 12.8333 13.5417C12.4421 13.5417 12.125 13.2245 12.125 12.8333C12.125 12.4421 12.4421 12.125 12.8333 12.125C13.2245 12.125 13.5417 12.4421 13.5417 12.8333ZM16.375 12.8333C16.375 13.2245 16.0579 13.5417 15.6667 13.5417C15.2755 13.5417 14.9583 13.2245 14.9583 12.8333C14.9583 12.4421 15.2755 12.125 15.6667 12.125C16.0579 12.125 16.375 12.4421 16.375 12.8333ZM19.2083 12.8333C19.2083 13.2245 18.8912 13.5417 18.5 13.5417C18.1088 13.5417 17.7917 13.2245 17.7917 12.8333C17.7917 12.4421 18.1088 12.125 18.5 12.125C18.8912 12.125 19.2083 12.4421 19.2083 12.8333ZM22.0417 12.8333C22.0417 13.2245 21.7245 13.5417 21.3333 13.5417C20.9421 13.5417 20.625 13.2245 20.625 12.8333C20.625 12.4421 20.9421 12.125 21.3333 12.125C21.7245 12.125 22.0417 12.4421 22.0417 12.8333ZM24.875 12.8333C24.875 13.2245 24.5579 13.5417 24.1667 13.5417C23.7755 13.5417 23.4583 13.2245 23.4583 12.8333C23.4583 12.4421 23.7755 12.125 24.1667 12.125C24.5579 12.125 24.875 12.4421 24.875 12.8333ZM13.5417 24.1667C13.5417 24.5579 13.2245 24.875 12.8333 24.875C12.4421 24.875 12.125 24.5579 12.125 24.1667C12.125 23.7755 12.4421 23.4583 12.8333 23.4583C13.2245 23.4583 13.5417 23.7755 13.5417 24.1667ZM15.6667 24.875C16.0579 24.875 16.375 24.5579 16.375 24.1667C16.375 23.7755 16.0579 23.4583 15.6667 23.4583C15.2755 23.4583 14.9583 23.7755 14.9583 24.1667C14.9583 24.5579 15.2755 24.875 15.6667 24.875ZM18.5 24.875C18.8912 24.875 19.2083 24.5579 19.2083 24.1667C19.2083 23.7755 18.8912 23.4583 18.5 23.4583C18.1088 23.4583 17.7917 23.7755 17.7917 24.1667C17.7917 24.5579 18.1088 24.875 18.5 24.875ZM21.3333 24.875C21.7245 24.875 22.0417 24.5579 22.0417 24.1667C22.0417 23.7755 21.7245 23.4583 21.3333 23.4583C20.9421 23.4583 20.625 23.7755 20.625 24.1667C20.625 24.5579 20.9421 24.875 21.3333 24.875ZM24.1667 24.875C24.5579 24.875 24.875 24.5579 24.875 24.1667C24.875 23.7755 24.5579 23.4583 24.1667 23.4583C23.7755 23.4583 23.4583 23.7755 23.4583 24.1667C23.4583 24.5579 23.7755 24.875 24.1667 24.875ZM14.25 17.7917C14.25 18.1829 13.9329 18.5 13.5417 18.5C13.1505 18.5 12.8333 18.1829 12.8333 17.7917C12.8333 17.4005 13.1505 17.0833 13.5417 17.0833C13.9329 17.0833 14.25 17.4005 14.25 17.7917ZM24.1667 19.2083C24.1667 19.5995 23.8495 19.9167 23.4583 19.9167C23.0671 19.9167 22.75 19.5995 22.75 19.2083C22.75 18.8171 23.0671 18.5 23.4583 18.5C23.8495 18.5 24.1667 18.8171 24.1667 19.2083ZM12.125 14.25C10.9514 14.25 10 15.2014 10 16.375V20.625C10 21.7986 10.9514 22.75 12.125 22.75H24.875C26.0486 22.75 27 21.7986 27 20.625V16.375C27 15.2014 26.0486 14.25 24.875 14.25H12.125ZM24.875 15.6667H12.125C11.7338 15.6667 11.4167 15.9838 11.4167 16.375V20.625C11.4167 21.0162 11.7338 21.3333 12.125 21.3333H24.875C25.2662 21.3333 25.5833 21.0162 25.5833 20.625V16.375C25.5833 15.9838 25.2662 15.6667 24.875 15.6667Z" fill="#3F3D65"/>
</svg>
