<svg width="37" height="37" viewBox="0 0 37 37" fill="none" xmlns="http://www.w3.org/2000/svg">
<rect width="37" height="37" rx="18.5" fill="#FFE9D8"/>
<path fill-rule="evenodd" clip-rule="evenodd" d="M10 14.25C10 13.0764 10.9514 12.125 12.125 12.125H24.875C26.0486 12.125 27 13.0764 27 14.25V22.75C27 23.9236 26.0486 24.875 24.875 24.875H12.125C10.9514 24.875 10 23.9236 10 22.75V14.25ZM19.2083 13.5417H24.875C25.2662 13.5417 25.5833 13.8588 25.5833 14.25V22.75C25.5833 23.1412 25.2662 23.4583 24.875 23.4583H19.2083V13.5417ZM17.7917 13.5417H12.125C11.7338 13.5417 11.4167 13.8588 11.4167 14.25V22.75C11.4167 23.1412 11.7338 23.4583 12.125 23.4583H17.7917V13.5417ZM20.625 15.6667C20.625 15.2755 20.9421 14.9583 21.3333 14.9583H23.4583C23.8495 14.9583 24.1667 15.2755 24.1667 15.6667C24.1667 16.0579 23.8495 16.375 23.4583 16.375H21.3333C20.9421 16.375 20.625 16.0579 20.625 15.6667ZM21.3333 17.7917C20.9421 17.7917 20.625 18.1088 20.625 18.5C20.625 18.8912 20.9421 19.2083 21.3333 19.2083H23.4583C23.8495 19.2083 24.1667 18.8912 24.1667 18.5C24.1667 18.1088 23.8495 17.7917 23.4583 17.7917H21.3333ZM21.3333 20.625C20.9421 20.625 20.625 20.9421 20.625 21.3333C20.625 21.7245 20.9421 22.0417 21.3333 22.0417H23.4583C23.8495 22.0417 24.1667 21.7245 24.1667 21.3333C24.1667 20.9421 23.8495 20.625 23.4583 20.625H21.3333Z" fill="#3F3D65"/>
</svg>
