<svg width="37" height="37" viewBox="0 0 37 37" fill="none" xmlns="http://www.w3.org/2000/svg">
<rect width="37" height="37" rx="18.5" fill="#D7D8FE"/>
<path d="M18.4993 25.5833C22.4114 25.5833 25.5827 22.412 25.5827 18.5C25.5827 14.5879 22.4114 11.4166 18.4993 11.4166C14.5873 11.4166 11.416 14.5879 11.416 18.5C11.416 22.412 14.5873 25.5833 18.4993 25.5833Z" stroke="#3F3D65" stroke-width="1.5" stroke-linecap="round" stroke-linejoin="round"/>
<path d="M11.416 18.5H25.5827" stroke="#3F3D65" stroke-width="1.5" stroke-linecap="round" stroke-linejoin="round"/>
<path d="M18.4993 11.4166C20.2711 13.3563 21.278 15.8735 21.3327 18.5C21.278 21.1264 20.2711 23.6436 18.4993 25.5833C16.7276 23.6436 15.7207 21.1264 15.666 18.5C15.7207 15.8735 16.7276 13.3563 18.4993 11.4166V11.4166Z" stroke="#3F3D65" stroke-width="1.5" stroke-linecap="round" stroke-linejoin="round"/>
</svg>
