<svg width="46" height="46" viewBox="0 0 46 46" fill="none" xmlns="http://www.w3.org/2000/svg">
<rect width="46" height="46" rx="8" fill="#F5F5F7"/>
<path d="M27.1586 26.2888L27.1593 26.2882C27.1722 26.2756 27.1867 26.2624 27.2026 26.2494L27.1586 26.2888ZM27.1586 26.2888L23.2857 30.0861L19.4128 26.2888L19.4121 26.2882M27.1586 26.2888L19.4121 26.2882M19.4121 26.2882C19.3992 26.2757 19.3848 26.2624 19.3688 26.2494L19.4121 26.2882ZM27.9878 25.4796L27.9878 25.4796C28.9014 24.4055 29.4043 23.043 29.4043 21.6433C29.4043 18.34 26.6621 15.6473 23.2857 15.6473C19.9093 15.6473 17.1671 18.34 17.1671 21.6433C17.1671 23.043 17.6701 24.4056 18.5835 25.4796C18.8205 25.7581 19.0846 26.0171 19.3687 26.2493L27.9878 25.4796ZM27.9878 25.4796C27.751 25.758 27.4868 26.017 27.2027 26.2493L27.9878 25.4796ZM18.0289 16.4851L18.0289 16.4851C16.6244 17.8622 15.85 19.6946 15.85 21.6433C15.85 23.3293 16.4492 24.9701 17.5381 26.2702V26.2707L17.5738 26.3127C17.8552 26.6434 18.168 26.9513 18.5042 27.2284L22.821 31.4611L22.926 31.354L22.821 31.4611C22.9498 31.5874 23.1183 31.65 23.2857 31.65C23.453 31.65 23.6215 31.5874 23.7503 31.4611C23.7503 31.461 23.7503 31.461 23.7503 31.461L28.0673 27.2284C28.4034 26.9513 28.7162 26.6434 28.9975 26.3125C30.1091 25.0058 30.7214 23.3477 30.7214 21.6433C30.7214 19.6946 29.947 17.8622 28.5424 16.4851C27.1381 15.1081 25.2706 14.35 23.2857 14.35C21.3007 14.35 19.4334 15.1081 18.0289 16.4851Z" fill="#3F3D65" stroke="#3F3D65" stroke-width="0.3"/>
<path d="M25.5906 19.3594H23.1608C22.783 19.3594 22.4766 19.669 22.4766 20.051V24.3342C22.4766 24.7164 22.783 25.026 23.1608 25.026C23.5385 25.026 23.8449 24.7164 23.8449 24.3342V22.8844H25.5906C26.5518 22.8844 27.3337 22.0937 27.3337 21.1218C27.3337 20.15 26.5518 19.3594 25.5906 19.3594ZM25.5906 21.5009H23.8449V20.7428H25.5906C25.7973 20.7428 25.9655 20.9129 25.9655 21.122C25.9655 21.3309 25.7973 21.5009 25.5906 21.5009Z" fill="#3F3D65"/>
<path d="M20.8564 19.3594C20.4094 19.3594 20.0469 19.669 20.0469 20.051V24.3342C20.0469 24.7164 20.4094 25.026 20.8564 25.026C21.3034 25.026 21.6659 24.7164 21.6659 24.3342V20.051C21.6659 19.669 21.3034 19.3594 20.8564 19.3594Z" fill="#3F3D65"/>
</svg>
