<svg width="46" height="46" viewBox="0 0 46 46" fill="none" xmlns="http://www.w3.org/2000/svg">
<rect width="46" height="46" rx="8" fill="#D7D8FE"/>
<path d="M23 32C18.0293 32 14 27.9707 14 23C14 18.0293 18.0293 14 23 14C27.9707 14 32 18.0293 32 23C32 27.9707 27.9707 32 23 32ZM23 30.2C24.9096 30.2 26.7409 29.4414 28.0912 28.0912C29.4414 26.7409 30.2 24.9096 30.2 23C30.2 21.0904 29.4414 19.2591 28.0912 17.9088C26.7409 16.5586 24.9096 15.8 23 15.8C21.0904 15.8 19.2591 16.5586 17.9088 17.9088C16.5586 19.2591 15.8 21.0904 15.8 23C15.8 24.9096 16.5586 26.7409 17.9088 28.0912C19.2591 29.4414 21.0904 30.2 23 30.2ZM23.9 23H27.5V24.8H22.1V18.5H23.9V23Z" fill="#6062F9"/>
</svg>
