<svg width="46" height="46" viewBox="0 0 46 46" fill="none" xmlns="http://www.w3.org/2000/svg">
<rect width="46" height="46" rx="8" fill="#FFE9D8"/>
<path d="M31 15L31.6854 15.3046C31.8114 15.021 31.7498 14.6891 31.5303 14.4697C31.3109 14.2502 30.979 14.1886 30.6954 14.3146L31 15ZM15 22.1111L14.6954 21.4258C14.4229 21.5469 14.248 21.8179 14.25 22.1161C14.252 22.4143 14.4305 22.683 14.7046 22.8005L15 22.1111ZM21.2222 24.7778L21.9116 24.4823C21.8357 24.3053 21.6947 24.1643 21.5177 24.0884L21.2222 24.7778ZM23.8889 31L23.1995 31.2954C23.317 31.5695 23.5857 31.748 23.8839 31.75C24.1821 31.752 24.4531 31.5771 24.5742 31.3046L23.8889 31ZM30.6954 14.3146L14.6954 21.4258L15.3046 22.7965L31.3046 15.6854L30.6954 14.3146ZM14.7046 22.8005L20.9268 25.4671L21.5177 24.0884L15.2954 21.4218L14.7046 22.8005ZM20.5329 25.0732L23.1995 31.2954L24.5782 30.7046L21.9116 24.4823L20.5329 25.0732ZM24.5742 31.3046L31.6854 15.3046L30.3146 14.6954L23.2035 30.6954L24.5742 31.3046Z" fill="#FF933B"/>
</svg>
