<svg width="46" height="46" viewBox="0 0 46 46" fill="none" xmlns="http://www.w3.org/2000/svg">
<rect width="46" height="46" rx="8" fill="#FFEEF1"/>
<path d="M29 15.5H17C16.1716 15.5 15.5 16.1716 15.5 17V20C15.5 20.8284 16.1716 21.5 17 21.5H29C29.8284 21.5 30.5 20.8284 30.5 20V17C30.5 16.1716 29.8284 15.5 29 15.5Z" stroke="#FFEDED" stroke-width="1.5" stroke-linecap="round" stroke-linejoin="round"/>
<path d="M29 24.5H17C16.1716 24.5 15.5 25.1716 15.5 26V29C15.5 29.8284 16.1716 30.5 17 30.5H29C29.8284 30.5 30.5 29.8284 30.5 29V26C30.5 25.1716 29.8284 24.5 29 24.5Z" stroke="#FFEDED" stroke-width="1.5" stroke-linecap="round" stroke-linejoin="round"/>
<path d="M18.5 18.5H18.5075" stroke="#FFEDED" stroke-width="1.5" stroke-linecap="round" stroke-linejoin="round"/>
<path d="M18.5 27.5H18.5075" stroke="#FFEDED" stroke-width="1.5" stroke-linecap="round" stroke-linejoin="round"/>
</svg>
